<svg width="860" height="734" xmlns="http://www.w3.org/2000/svg" xmlns:xlink="http://www.w3.org/1999/xlink" xml:space="preserve" overflow="hidden"><defs><clipPath id="clip0"><rect x="1514" y="496" width="860" height="734"/></clipPath></defs><g clip-path="url(#clip0)" transform="translate(-1514 -496)"><rect x="1514" y="496" width="859" height="733" fill="#FFFFFF"/><g><path d="M1629 962 1660 962 1660 1022 1629 1022Z" fill="#C00000"/></g><g><path d="M1668 1007 1699 1007 1699 1022 1668 1022Z" fill="#44546A"/></g><g><path d="M1707 706 1738 706 1738 1022 1707 1022Z" fill="#FFD966"/></g><g><path d="M1746 819 1777 819 1777 1022 1746 1022Z" fill="#00B0F0"/></g><g><path d="M1785 833 1816 833 1816 1022 1785 1022Z" fill="#385723"/></g><g><path d="M1824 626 1855 626 1855 1022 1824 1022Z" fill="#70AD47"/></g><g><path d="M1863 909 1894 909 1894 1022 1863 1022Z" fill="#7030A0"/></g><g><path d="M1902 987 1932 987 1932 1022 1902 1022Z" fill="#9E480E"/></g><g><path d="M1941 961 1971 961 1971 1022 1941 1022Z" fill="#BFBFBF"/></g><g><path d="M1980 910 2010 910 2010 1022 1980 1022Z" fill="#997300"/></g><g><path d="M2019 675 2049 675 2049 1022 2019 1022Z" fill="#255E91"/></g><g><path d="M2058 542 2088 542 2088 1022 2058 1022Z" fill="#00FF00"/></g><g><path d="M2097 838 2127 838 2127 1022 2097 1022Z" fill="#698ED0"/></g><g><path d="M2136 1010 2166 1010 2166 1022 2136 1022Z" fill="#FFCC00"/></g><g><path d="M2175 975 2205 975 2205 1022 2175 1022Z" fill="#993366"/></g><g><path d="M2292 1004 2322 1004 2322 1022 2292 1022Z" fill="#FFCCCC"/></g><g><path d="M0 0 0.000104987 509" stroke="#000000" stroke-linejoin="round" stroke-miterlimit="10" fill="none" fill-rule="evenodd" transform="matrix(1 0 0 -1 1595.5 1022.5)"/></g><g><path d="M1595.5 1022.5 2355.5 1022.5" stroke="#000000" stroke-linejoin="round" stroke-miterlimit="10" fill="none" fill-rule="evenodd"/></g><g><text font-family="Calibri,Calibri_MSFontService,Arial" font-weight="400" font-size="12" transform="translate(1633.71 952)">4.14</text></g><g><text font-family="Calibri,Calibri_MSFontService,Arial" font-weight="400" font-size="12" transform="translate(1672.68 998)">1.01</text></g><g><text font-family="Calibri,Calibri_MSFontService,Arial" font-weight="400" font-size="12" transform="translate(1708.61 696)">21.76</text></g><g><text font-family="Calibri,Calibri_MSFontService,Arial" font-weight="400" font-size="12" transform="translate(1747.58 809)">14.00</text></g><g><text font-family="Calibri,Calibri_MSFontService,Arial" font-weight="400" font-size="12" transform="translate(1786.56 824)">13.00</text></g><g><text font-family="Calibri,Calibri_MSFontService,Arial" font-weight="400" font-size="12" transform="translate(1825.53 616)">27.25</text></g><g><text font-family="Calibri,Calibri_MSFontService,Arial" font-weight="400" font-size="12" transform="translate(1867.54 899)">7.79</text></g><g><text font-family="Calibri,Calibri_MSFontService,Arial" font-weight="400" font-size="12" transform="translate(1906.51 977)">2.40</text></g><g><text font-family="Calibri,Calibri_MSFontService,Arial" font-weight="400" font-size="12" transform="translate(1945.48 952)">4.19</text></g><g><text font-family="Calibri,Calibri_MSFontService,Arial" font-weight="400" font-size="12" transform="translate(1984.46 900)">7.70</text></g><g><text font-family="Calibri,Calibri_MSFontService,Arial" font-weight="400" font-size="12" transform="translate(2020.39 665)">23.89</text></g><g><text font-family="Calibri,Calibri_MSFontService,Arial" font-weight="400" font-size="12" transform="translate(2059.36 532)">33.04</text></g><g><text font-family="Calibri,Calibri_MSFontService,Arial" font-weight="400" font-size="12" transform="translate(2098.33 829)">12.64</text></g><g><text font-family="Calibri,Calibri_MSFontService,Arial" font-weight="400" font-size="12" transform="translate(2140.34 1000)">0.83</text></g><g><text font-family="Calibri,Calibri_MSFontService,Arial" font-weight="400" font-size="12" transform="translate(2179.32 966)">3.22</text></g><g><text font-family="Calibri,Calibri_MSFontService,Arial" font-weight="400" font-size="12" transform="translate(2296.23 995)">1.22</text></g><g><text font-family="Arial,Arial_MSFontService,Arial" font-weight="400" font-size="13" transform="translate(1557.97 1026)">0.00</text></g><g><text font-family="Arial,Arial_MSFontService,Arial" font-weight="400" font-size="13" transform="translate(1557.97 954)">5.00</text></g><g><text font-family="Arial,Arial_MSFontService,Arial" font-weight="400" font-size="13" transform="translate(1550.56 881)">10.00</text></g><g><text font-family="Arial,Arial_MSFontService,Arial" font-weight="400" font-size="13" transform="translate(1550.56 808)">15.00</text></g><g><text font-family="Arial,Arial_MSFontService,Arial" font-weight="400" font-size="13" transform="translate(1550.56 736)">20.00</text></g><g><text font-family="Arial,Arial_MSFontService,Arial" font-weight="400" font-size="13" transform="translate(1550.56 663)">25.00</text></g><g><text font-family="Arial,Arial_MSFontService,Arial" font-weight="400" font-size="13" transform="translate(1550.56 590)">30.00</text></g><g><text font-family="Arial,Arial_MSFontService,Arial" font-weight="400" font-size="13" transform="translate(1550.56 518)">35.00</text></g><g><text font-family="Arial,Arial_MSFontService,Arial" font-weight="400" font-size="15" transform="translate(1874.5 1044)">Sectores de vigilancia y control</text></g><g><text font-family="Arial,Arial_MSFontService,Arial" font-weight="400" font-size="15" transform="matrix(6.12323e-17 -1 1 6.12323e-17 1537.01 874)">hectáreas (ha.) deforestadas</text></g><g><rect x="1555" y="1080" width="8" height="8" fill="#C00000"/></g><g><text font-family="Arial,Arial_MSFontService,Arial" font-weight="400" font-size="15" transform="translate(1565.95 1088)">San Jose de Yanayacu</text></g><g><rect x="1762" y="1080" width="8" height="8" fill="#44546A"/></g><g><text font-family="Arial,Arial_MSFontService,Arial" font-weight="400" font-size="15" transform="translate(1772.89 1088)">Robashca</text></g><g><rect x="1969" y="1080" width="8" height="8" fill="#FFD966"/></g><g><text font-family="Arial,Arial_MSFontService,Arial" font-weight="400" font-size="15" transform="translate(1979.83 1088)">Misquiyaquillo</text></g><g><rect x="2176" y="1080" width="8" height="8" fill="#00B0F0"/></g><g><text font-family="Arial,Arial_MSFontService,Arial" font-weight="400" font-size="15" transform="translate(2186.77 1088)">Chambirillo</text></g><g><rect x="1555" y="1114" width="8" height="8" fill="#385723"/></g><g><text font-family="Arial,Arial_MSFontService,Arial" font-weight="400" font-size="15" transform="translate(1565.95 1122)">Nuevo Loreto</text></g><g><rect x="1762" y="1114" width="8" height="8" fill="#70AD47"/></g><g><text font-family="Arial,Arial_MSFontService,Arial" font-weight="400" font-size="15" transform="translate(1772.89 1122)">Ipururo</text></g><g><rect x="1969" y="1114" width="8" height="8" fill="#7030A0"/></g><g><text font-family="Arial,Arial_MSFontService,Arial" font-weight="400" font-size="15" transform="translate(1979.83 1122)">Tornillal</text></g><g><rect x="2176" y="1114" width="8" height="8" fill="#9E480E"/></g><g><text font-family="Arial,Arial_MSFontService,Arial" font-weight="400" font-size="15" transform="translate(2186.77 1122)">Mojarra</text></g><g><rect x="1555" y="1149" width="8" height="7" fill="#BFBFBF"/></g><g><text font-family="Arial,Arial_MSFontService,Arial" font-weight="400" font-size="15" transform="translate(1565.95 1157)">Cachatigre</text></g><g><rect x="1762" y="1149" width="8" height="7" fill="#997300"/></g><g><text font-family="Arial,Arial_MSFontService,Arial" font-weight="400" font-size="15" transform="translate(1772.89 1157)">Piquiyacu</text></g><g><rect x="1969" y="1149" width="8" height="7" fill="#255E91"/></g><g><text font-family="Arial,Arial_MSFontService,Arial" font-weight="400" font-size="15" transform="translate(1979.83 1157)">Polvora</text></g><g><rect x="2176" y="1149" width="8" height="7" fill="#00FF00"/></g><g><text font-family="Arial,Arial_MSFontService,Arial" font-weight="400" font-size="15" transform="translate(2186.77 1157)">Shapaja</text></g><g><rect x="1555" y="1183" width="8" height="7" fill="#698ED0"/></g><g><text font-family="Arial,Arial_MSFontService,Arial" font-weight="400" font-size="15" transform="translate(1565.95 1191)">Pucayacu</text></g><g><rect x="1762" y="1183" width="8" height="7" fill="#FFCC00"/></g><g><text font-family="Arial,Arial_MSFontService,Arial" font-weight="400" font-size="15" transform="translate(1772.89 1191)">Santa Ana</text></g><g><rect x="1969" y="1183" width="8" height="7" fill="#993366"/></g><g><text font-family="Arial,Arial_MSFontService,Arial" font-weight="400" font-size="15" transform="translate(1979.83 1191)">Pisqui</text></g><g><rect x="2176" y="1183" width="8" height="7" fill="#FFCCCC"/></g><g><text font-family="Arial,Arial_MSFontService,Arial" font-weight="400" font-size="15" transform="translate(2186.77 1191)">Nuevo Dorado</text></g><rect x="1514.5" y="496.5" width="859" height="733" stroke="#D9D9D9" stroke-linejoin="round" stroke-miterlimit="10" fill="none"/></g></svg>