<svg width="791" height="674" xmlns="http://www.w3.org/2000/svg" xmlns:xlink="http://www.w3.org/1999/xlink" xml:space="preserve" overflow="hidden"><defs><clipPath id="clip0"><rect x="369" y="170" width="791" height="674"/></clipPath></defs><g clip-path="url(#clip0)" transform="translate(-369 -170)"><rect x="369" y="170" width="790" height="673" fill="#FFFFFF"/><g><path d="M1125 795 556 795 556 770 1125 770ZM999 725 556 725 556 700 999 700ZM1056 654 556 654 556 630 1056 630ZM1049 584 556 584 556 559 1049 559ZM1113 514 556 514 556 489 1113 489ZM1114 444 556 444 556 419 1114 419ZM1049 373 556 373 556 348 1049 348ZM1076 303 556 303 556 278 1076 278ZM1088 233 556 233 556 208 1088 208Z" fill="#0070C0"/></g><g><path d="M1147 795 1125 795 1125 770 1147 770ZM1147 725 999 725 999 700 1147 700ZM1147 654 1056 654 1056 630 1147 630ZM1147 584 1049 584 1049 559 1147 559ZM1147 514 1113 514 1113 489 1147 489ZM1147 444 1114 444 1114 419 1147 419ZM1147 373 1049 373 1049 348 1147 348ZM1147 303 1076 303 1076 278 1147 278ZM1147 233 1088 233 1088 208 1147 208Z" fill="#203864"/></g><g><path d="M0 0 0.000104987 632" stroke="#000000" stroke-linejoin="round" stroke-miterlimit="10" fill="none" fill-rule="evenodd" transform="matrix(1 0 0 -1 556.5 817.5)"/></g><g><text fill="#FFFFFF" font-family="Calibri,Calibri_MSFontService,Arial" font-weight="400" font-size="13" transform="translate(830.257 787)">358</text></g><g><text fill="#FFFFFF" font-family="Calibri,Calibri_MSFontService,Arial" font-weight="400" font-size="13" transform="translate(774.267 717)">3</text></g><g><text fill="#FFFFFF" font-family="Calibri,Calibri_MSFontService,Arial" font-weight="400" font-size="13" transform="translate(799.298 647)">11</text></g><g><text fill="#FFFFFF" font-family="Calibri,Calibri_MSFontService,Arial" font-weight="400" font-size="13" transform="translate(795.51 577)">10</text></g><g><text fill="#FFFFFF" font-family="Calibri,Calibri_MSFontService,Arial" font-weight="400" font-size="13" transform="translate(827.872 506)">66</text></g><g><text fill="#FFFFFF" font-family="Calibri,Calibri_MSFontService,Arial" font-weight="400" font-size="13" transform="translate(828.032 436)">50</text></g><g><text fill="#FFFFFF" font-family="Calibri,Calibri_MSFontService,Arial" font-weight="400" font-size="13" transform="translate(798.89 366)">5</text></g><g><text fill="#FFFFFF" font-family="Calibri,Calibri_MSFontService,Arial" font-weight="400" font-size="13" transform="translate(809.299 295)">44</text></g><g><text fill="#FFFFFF" font-family="Calibri,Calibri_MSFontService,Arial" font-weight="400" font-size="13" transform="translate(818.589 225)">9</text></g><g><text fill="#FFFFFF" font-family="Calibri,Calibri_MSFontService,Arial" font-weight="400" font-size="13" transform="translate(1129.12 787)">14</text></g><g><text fill="#FFFFFF" font-family="Calibri,Calibri_MSFontService,Arial" font-weight="400" font-size="13" transform="translate(1069.75 717)">1</text></g><g><text fill="#FFFFFF" font-family="Calibri,Calibri_MSFontService,Arial" font-weight="400" font-size="13" transform="translate(1098.16 647)">2</text></g><g><text fill="#FFFFFF" font-family="Calibri,Calibri_MSFontService,Arial" font-weight="400" font-size="13" transform="translate(1094.37 577)">2</text></g><g><text fill="#FFFFFF" font-family="Calibri,Calibri_MSFontService,Arial" font-weight="400" font-size="13" transform="translate(1126.74 506)">4</text></g><g><text fill="#FFFFFF" font-family="Calibri,Calibri_MSFontService,Arial" font-weight="400" font-size="13" transform="translate(1126.89 436)">3</text></g><g><text fill="#FFFFFF" font-family="Calibri,Calibri_MSFontService,Arial" font-weight="400" font-size="13" transform="translate(1094.37 366)">1</text></g><g><text fill="#FFFFFF" font-family="Calibri,Calibri_MSFontService,Arial" font-weight="400" font-size="13" transform="translate(1108.16 295)">6</text></g><g><text fill="#FFFFFF" font-family="Calibri,Calibri_MSFontService,Arial" font-weight="400" font-size="13" transform="translate(1114.07 225)">1</text></g><g><text font-family="Calibri,Calibri_MSFontService,Arial" font-style="italic" font-weight="400" font-size="13" transform="translate(461.953 779)">Cuniculus paca</text></g><g><text font-family="Calibri,Calibri_MSFontService,Arial" font-style="italic" font-weight="400" font-size="13" transform="translate(460.593 795)">"Majas/picuro"</text></g><g><text font-family="Calibri,Calibri_MSFontService,Arial" font-style="italic" font-weight="400" font-size="13" transform="translate(423.447 716)">Dasyprocta sp "añuje"</text></g><g><text font-family="Calibri,Calibri_MSFontService,Arial" font-style="italic" font-weight="400" font-size="13" transform="translate(421.487 638)">Dasypus novemcinctus</text></g><g><text font-family="Calibri,Calibri_MSFontService,Arial" font-style="italic" font-weight="400" font-size="13" transform="translate(448.127 654)">"Carachupa"</text></g><g><text font-family="Calibri,Calibri_MSFontService,Arial" font-style="italic" font-weight="400" font-size="13" transform="translate(396.367 568)">Hydrochoerus hydrochaeris</text></g><g><text font-family="Calibri,Calibri_MSFontService,Arial" font-style="italic" font-weight="400" font-size="13" transform="translate(441.997 584)">"Ronsoco"</text></g><g><text font-family="Calibri,Calibri_MSFontService,Arial" font-style="italic" font-weight="400" font-size="13" transform="translate(435.373 497)">Mazama americana</text></g><g><text font-family="Calibri,Calibri_MSFontService,Arial" font-style="italic" font-weight="400" font-size="13" transform="translate(463.507 514)">"Venado"</text></g><g><text font-family="Calibri,Calibri_MSFontService,Arial" font-style="italic" font-weight="400" font-size="13" transform="translate(473.6 427)">Pecari tajacu</text></g><g><text font-family="Calibri,Calibri_MSFontService,Arial" font-style="italic" font-weight="400" font-size="13" transform="translate(486.873 443)">"Sajino"</text></g><g><text font-family="Calibri,Calibri_MSFontService,Arial" font-style="italic" font-weight="400" font-size="13" transform="translate(442.506 357)">Penelope jacquacu</text></g><g><text font-family="Calibri,Calibri_MSFontService,Arial" font-style="italic" font-weight="400" font-size="13" transform="translate(458.19 373)">"Pucacunga"</text></g><g><text font-family="Calibri,Calibri_MSFontService,Arial" font-style="italic" font-weight="400" font-size="13" transform="translate(399.773 287)">Pseudorinelepis genibarbis</text></g><g><text font-family="Calibri,Calibri_MSFontService,Arial" font-style="italic" font-weight="400" font-size="13" transform="translate(435.423 303)">"Carachama"</text></g><g><text font-family="Calibri,Calibri_MSFontService,Arial" font-style="italic" font-weight="400" font-size="13" transform="translate(464 216)">Tayassu pecari</text></g><g><text font-family="Calibri,Calibri_MSFontService,Arial" font-style="italic" font-weight="400" font-size="13" transform="translate(470.347 233)">"Huangana"</text></g><rect x="369.5" y="170.5" width="790" height="673" stroke="#D9D9D9" stroke-linejoin="round" stroke-miterlimit="10" fill="none"/></g></svg>