<svg width="837" height="673" xmlns="http://www.w3.org/2000/svg" xmlns:xlink="http://www.w3.org/1999/xlink" xml:space="preserve" overflow="hidden"><defs><clipPath id="clip0"><rect x="585" y="18" width="837" height="673"/></clipPath></defs><g clip-path="url(#clip0)" transform="translate(-585 -18)"><rect x="585" y="18" width="836" height="672" fill="#FFFFFF"/><g><path d="M1366 615 753 615 753 577 1366 577ZM1233 549 753 549 753 511 1233 511ZM1295 482 753 482 753 444 1295 444ZM1286 416 753 416 753 378 1286 378ZM1356 350 753 350 753 312 1356 312ZM1357 284 753 284 753 246 1357 246ZM1286 217 753 217 753 179 1286 179ZM1305 151 753 151 753 113 1305 113ZM1329 85 753 85 753 47 1329 47Z" fill="#0070C0"/></g><g><path d="M1393 615 1366 615 1366 577 1393 577ZM1393 549 1233 549 1233 511 1393 511ZM1393 482 1295 482 1295 444 1393 444ZM1393 416 1286 416 1286 378 1393 378ZM1393 350 1356 350 1356 312 1393 312ZM1393 284 1357 284 1357 246 1393 246ZM1393 217 1286 217 1286 179 1393 179ZM1393 151 1305 151 1305 113 1393 113ZM1393 85 1329 85 1329 47 1393 47Z" fill="#002060"/></g><g><path d="M0 0 0.000104987 597" stroke="#000000" stroke-linejoin="round" stroke-miterlimit="10" fill="none" fill-rule="evenodd" transform="matrix(1 0 0 -1 753.5 629.5)"/></g><g><text fill="#FFFFFF" font-family="Calibri,Calibri_MSFontService,Arial" font-weight="400" font-size="12" transform="translate(1050.33 600)">358</text></g><g><text fill="#FFFFFF" font-family="Calibri,Calibri_MSFontService,Arial" font-weight="400" font-size="12" transform="translate(990.14 533)">3</text></g><g><text fill="#FFFFFF" font-family="Calibri,Calibri_MSFontService,Arial" font-weight="400" font-size="12" transform="translate(1017.85 467)">11</text></g><g><text fill="#FFFFFF" font-family="Calibri,Calibri_MSFontService,Arial" font-weight="400" font-size="12" transform="translate(1013.75 401)">10</text></g><g><text fill="#FFFFFF" font-family="Calibri,Calibri_MSFontService,Arial" font-weight="400" font-size="12" transform="translate(1048.77 335)">66</text></g><g><text fill="#FFFFFF" font-family="Calibri,Calibri_MSFontService,Arial" font-weight="400" font-size="12" transform="translate(1048.95 268)">50</text></g><g><text fill="#FFFFFF" font-family="Calibri,Calibri_MSFontService,Arial" font-weight="400" font-size="12" transform="translate(1016.79 202)">5</text></g><g><text fill="#FFFFFF" font-family="Calibri,Calibri_MSFontService,Arial" font-weight="400" font-size="12" transform="translate(1023.16 136)">44</text></g><g><text fill="#FFFFFF" font-family="Calibri,Calibri_MSFontService,Arial" font-weight="400" font-size="12" transform="translate(1038.11 69)">9</text></g><g><text fill="#FFFFFF" font-family="Calibri,Calibri_MSFontService,Arial" font-weight="400" font-size="12" transform="translate(1373.16 600)">16</text></g><g><text fill="#FFFFFF" font-family="Calibri,Calibri_MSFontService,Arial" font-weight="400" font-size="12" transform="translate(1309.93 533)">1</text></g><g><text fill="#FFFFFF" font-family="Calibri,Calibri_MSFontService,Arial" font-weight="400" font-size="12" transform="translate(1340.68 467)">2</text></g><g><text fill="#FFFFFF" font-family="Calibri,Calibri_MSFontService,Arial" font-weight="400" font-size="12" transform="translate(1336.58 401)">2</text></g><g><text fill="#FFFFFF" font-family="Calibri,Calibri_MSFontService,Arial" font-weight="400" font-size="12" transform="translate(1371.61 335)">4</text></g><g><text fill="#FFFFFF" font-family="Calibri,Calibri_MSFontService,Arial" font-weight="400" font-size="12" transform="translate(1371.78 268)">3</text></g><g><text fill="#FFFFFF" font-family="Calibri,Calibri_MSFontService,Arial" font-weight="400" font-size="12" transform="translate(1336.58 202)">1</text></g><g><text fill="#FFFFFF" font-family="Calibri,Calibri_MSFontService,Arial" font-weight="400" font-size="12" transform="translate(1345.99 136)">7</text></g><g><text fill="#FFFFFF" font-family="Calibri,Calibri_MSFontService,Arial" font-weight="400" font-size="12" transform="translate(1357.9 69)">1</text></g><g><text font-family="Calibri,Calibri_MSFontService,Arial" font-weight="400" font-size="12" transform="translate(746.005 648)">0%</text></g><g><text font-family="Calibri,Calibri_MSFontService,Arial" font-weight="400" font-size="12" transform="translate(806.923 648)">10%</text></g><g><text font-family="Calibri,Calibri_MSFontService,Arial" font-weight="400" font-size="12" transform="translate(870.882 648)">20%</text></g><g><text font-family="Calibri,Calibri_MSFontService,Arial" font-weight="400" font-size="12" transform="translate(934.841 648)">30%</text></g><g><text font-family="Calibri,Calibri_MSFontService,Arial" font-weight="400" font-size="12" transform="translate(998.8 648)">40%</text></g><g><text font-family="Calibri,Calibri_MSFontService,Arial" font-weight="400" font-size="12" transform="translate(1062.76 648)">50%</text></g><g><text font-family="Calibri,Calibri_MSFontService,Arial" font-weight="400" font-size="12" transform="translate(1126.72 648)">60%</text></g><g><text font-family="Calibri,Calibri_MSFontService,Arial" font-weight="400" font-size="12" transform="translate(1190.68 648)">70%</text></g><g><text font-family="Calibri,Calibri_MSFontService,Arial" font-weight="400" font-size="12" transform="translate(1254.64 648)">80%</text></g><g><text font-family="Calibri,Calibri_MSFontService,Arial" font-weight="400" font-size="12" transform="translate(1318.59 648)">90%</text></g><g><text font-family="Calibri,Calibri_MSFontService,Arial" font-weight="400" font-size="12" transform="translate(1379.51 648)">100%</text></g><g><text font-family="Calibri,Calibri_MSFontService,Arial" font-style="italic" font-weight="400" font-size="13" transform="translate(659.253 592)">Cuniculus paca</text></g><g><text font-family="Calibri,Calibri_MSFontService,Arial" font-style="italic" font-weight="400" font-size="13" transform="translate(657.893 608)">"Majas/picuro"</text></g><g><text font-family="Calibri,Calibri_MSFontService,Arial" font-style="italic" font-weight="400" font-size="13" transform="translate(620.747 534)">Dasyprocta sp "añuje"</text></g><g><text font-family="Calibri,Calibri_MSFontService,Arial" font-style="italic" font-weight="400" font-size="13" transform="translate(618.787 459)">Dasypus novemcinctus</text></g><g><text font-family="Calibri,Calibri_MSFontService,Arial" font-style="italic" font-weight="400" font-size="13" transform="translate(645.427 476)">"Carachupa"</text></g><g><text font-family="Calibri,Calibri_MSFontService,Arial" font-style="italic" font-weight="400" font-size="13" transform="translate(593.667 393)">Hydrochoerus hydrochaeris</text></g><g><text font-family="Calibri,Calibri_MSFontService,Arial" font-style="italic" font-weight="400" font-size="13" transform="translate(639.297 409)">"Ronsoco"</text></g><g><text font-family="Calibri,Calibri_MSFontService,Arial" font-style="italic" font-weight="400" font-size="13" transform="translate(632.673 327)">Mazama americana</text></g><g><text font-family="Calibri,Calibri_MSFontService,Arial" font-style="italic" font-weight="400" font-size="13" transform="translate(660.807 343)">"Venado"</text></g><g><text font-family="Calibri,Calibri_MSFontService,Arial" font-style="italic" font-weight="400" font-size="13" transform="translate(670.9 261)">Pecari tajacu</text></g><g><text font-family="Calibri,Calibri_MSFontService,Arial" font-style="italic" font-weight="400" font-size="13" transform="translate(684.173 277)">"Sajino"</text></g><g><text font-family="Calibri,Calibri_MSFontService,Arial" font-style="italic" font-weight="400" font-size="13" transform="translate(639.807 194)">Penelope jacquacu</text></g><g><text font-family="Calibri,Calibri_MSFontService,Arial" font-style="italic" font-weight="400" font-size="13" transform="translate(655.49 211)">"Pucacunga"</text></g><g><text font-family="Calibri,Calibri_MSFontService,Arial" font-style="italic" font-weight="400" font-size="13" transform="translate(597.073 128)">Pseudorinelepis genibarbis</text></g><g><text font-family="Calibri,Calibri_MSFontService,Arial" font-style="italic" font-weight="400" font-size="13" transform="translate(632.723 144)">"Carachama"</text></g><g><text font-family="Calibri,Calibri_MSFontService,Arial" font-style="italic" font-weight="400" font-size="13" transform="translate(661.3 62)">Tayassu pecari</text></g><g><text font-family="Calibri,Calibri_MSFontService,Arial" font-style="italic" font-weight="400" font-size="13" transform="translate(667.647 78)">"Huangana"</text></g><g><rect x="915" y="668" width="7" height="7" fill="#0070C0"/></g><g><text font-family="Calibri,Calibri_MSFontService,Arial" font-weight="400" font-size="12" transform="translate(924.768 674)">Suma de Peso (Kg)</text></g><g><rect x="1030" y="668" width="7" height="7" fill="#002060"/></g><g><text font-family="Calibri,Calibri_MSFontService,Arial" font-weight="400" font-size="12" transform="translate(1039.37 674)">N°personas</text></g><rect x="585.5" y="18.5001" width="836" height="672" stroke="#D9D9D9" stroke-linejoin="round" stroke-miterlimit="10" fill="none"/></g></svg>