<svg width="839" height="673" xmlns="http://www.w3.org/2000/svg" xmlns:xlink="http://www.w3.org/1999/xlink" xml:space="preserve" overflow="hidden"><defs><clipPath id="clip0"><rect x="664" y="0" width="839" height="673"/></clipPath></defs><g clip-path="url(#clip0)" transform="translate(-664 0)"><rect x="664" y="0" width="838" height="672" fill="#FFFFFF"/><g><path d="M1372 593 832 593 832 555 1372 555ZM1216 527 832 527 832 489 1216 489ZM1302 461 832 461 832 424 1302 424ZM1290 395 832 395 832 358 1290 358ZM1396 330 832 330 832 292 1396 292ZM1394 264 832 264 832 226 1394 226ZM1232 198 832 198 832 160 1232 160ZM1385 132 832 132 832 95 1385 95ZM1356 66 832 66 832 29 1356 29Z" fill="#0070C0"/></g><g><path d="M1448 593 1372 593 1372 555 1448 555ZM1344 527 1216 527 1216 489 1344 489ZM1387 461 1302 461 1302 424 1387 424ZM1381 395 1290 395 1290 358 1381 358ZM1438 330 1396 330 1396 292 1438 292ZM1439 264 1394 264 1394 226 1439 226ZM1392 198 1232 198 1232 160 1392 160ZM1414 66 1356 66 1356 29 1414 29Z" fill="#002060"/></g><g><path d="M1472 593 1448 593 1448 555 1472 555ZM1472 527 1344 527 1344 489 1472 489ZM1472 461 1387 461 1387 424 1472 424ZM1472 395 1381 395 1381 358 1472 358ZM1472 330 1438 330 1438 292 1472 292ZM1472 264 1439 264 1439 226 1472 226ZM1472 198 1392 198 1392 160 1472 160ZM1472 132 1385 132 1385 95 1472 95ZM1472 66 1414 66 1414 29 1472 29Z" fill="#595959"/></g><g><path d="M0 0 0.000104987 592" stroke="#000000" stroke-linejoin="round" stroke-miterlimit="10" fill="none" fill-rule="evenodd" transform="matrix(1 0 0 -1 832.5 606.5)"/></g><g><text fill="#FFFFFF" font-family="Calibri,Calibri_MSFontService,Arial" font-weight="400" font-size="13" transform="translate(1091.79 579)">358</text></g><g><text fill="#FFFFFF" font-family="Calibri,Calibri_MSFontService,Arial" font-weight="400" font-size="13" transform="translate(1020.98 513)">3</text></g><g><text fill="#FFFFFF" font-family="Calibri,Calibri_MSFontService,Arial" font-weight="400" font-size="13" transform="translate(1060.27 447)">11</text></g><g><text fill="#FFFFFF" font-family="Calibri,Calibri_MSFontService,Arial" font-weight="400" font-size="13" transform="translate(1054.18 382)">10</text></g><g><text fill="#FFFFFF" font-family="Calibri,Calibri_MSFontService,Arial" font-weight="400" font-size="13" transform="translate(1107.21 316)">66</text></g><g><text fill="#FFFFFF" font-family="Calibri,Calibri_MSFontService,Arial" font-weight="400" font-size="13" transform="translate(1106.32 250)">50</text></g><g><text fill="#FFFFFF" font-family="Calibri,Calibri_MSFontService,Arial" font-weight="400" font-size="13" transform="translate(1028.98 184)">5</text></g><g><text fill="#FFFFFF" font-family="Calibri,Calibri_MSFontService,Arial" font-weight="400" font-size="13" transform="translate(1101.69 118)">44</text></g><g><text fill="#FFFFFF" font-family="Calibri,Calibri_MSFontService,Arial" font-weight="400" font-size="13" transform="translate(1090.81 52)">9</text></g><g><text fill="#FFFFFF" font-family="Calibri,Calibri_MSFontService,Arial" font-weight="400" font-size="13" transform="translate(1403.16 579)">51</text></g><g><text fill="#FFFFFF" font-family="Calibri,Calibri_MSFontService,Arial" font-weight="400" font-size="13" transform="translate(1277.02 513)">1</text></g><g><text fill="#FFFFFF" font-family="Calibri,Calibri_MSFontService,Arial" font-weight="400" font-size="13" transform="translate(1341.03 447)">2</text></g><g><text fill="#FFFFFF" font-family="Calibri,Calibri_MSFontService,Arial" font-weight="400" font-size="13" transform="translate(1331.88 382)">2</text></g><g><text fill="#FFFFFF" font-family="Calibri,Calibri_MSFontService,Arial" font-weight="400" font-size="13" transform="translate(1413.57 316)">5</text></g><g><text fill="#FFFFFF" font-family="Calibri,Calibri_MSFontService,Arial" font-weight="400" font-size="13" transform="translate(1412.9 250)">4</text></g><g><text fill="#FFFFFF" font-family="Calibri,Calibri_MSFontService,Arial" font-weight="400" font-size="13" transform="translate(1309.02 184)">2</text></g><g><text fill="#FFFFFF" font-family="Calibri,Calibri_MSFontService,Arial" font-weight="400" font-size="13" transform="translate(1381.76 52)">1</text></g><g><text fill="#FFFFFF" font-family="Calibri,Calibri_MSFontService,Arial" font-weight="400" font-size="13" transform="translate(1453.62 579)">16</text></g><g><text fill="#FFFFFF" font-family="Calibri,Calibri_MSFontService,Arial" font-weight="400" font-size="13" transform="translate(1405.04 513)">1</text></g><g><text fill="#FFFFFF" font-family="Calibri,Calibri_MSFontService,Arial" font-weight="400" font-size="13" transform="translate(1426.37 447)">2</text></g><g><text fill="#FFFFFF" font-family="Calibri,Calibri_MSFontService,Arial" font-weight="400" font-size="13" transform="translate(1423.33 382)">2</text></g><g><text fill="#FFFFFF" font-family="Calibri,Calibri_MSFontService,Arial" font-weight="400" font-size="13" transform="translate(1451.98 316)">4</text></g><g><text fill="#FFFFFF" font-family="Calibri,Calibri_MSFontService,Arial" font-weight="400" font-size="13" transform="translate(1452.2 250)">3</text></g><g><text fill="#FFFFFF" font-family="Calibri,Calibri_MSFontService,Arial" font-weight="400" font-size="13" transform="translate(1429.04 184)">1</text></g><g><text fill="#FFFFFF" font-family="Calibri,Calibri_MSFontService,Arial" font-weight="400" font-size="13" transform="translate(1425.12 118)">7</text></g><g><text fill="#FFFFFF" font-family="Calibri,Calibri_MSFontService,Arial" font-weight="400" font-size="13" transform="translate(1439.95 52)">1</text></g><g><text font-family="Calibri,Calibri_MSFontService,Arial" font-weight="400" font-size="13" transform="translate(824.188 628)">0%</text></g><g><text font-family="Calibri,Calibri_MSFontService,Arial" font-weight="400" font-size="13" transform="translate(884.817 628)">10%</text></g><g><text font-family="Calibri,Calibri_MSFontService,Arial" font-weight="400" font-size="13" transform="translate(948.826 628)">20%</text></g><g><text font-family="Calibri,Calibri_MSFontService,Arial" font-weight="400" font-size="13" transform="translate(1012.84 628)">30%</text></g><g><text font-family="Calibri,Calibri_MSFontService,Arial" font-weight="400" font-size="13" transform="translate(1076.84 628)">40%</text></g><g><text font-family="Calibri,Calibri_MSFontService,Arial" font-weight="400" font-size="13" transform="translate(1140.85 628)">50%</text></g><g><text font-family="Calibri,Calibri_MSFontService,Arial" font-weight="400" font-size="13" transform="translate(1204.86 628)">60%</text></g><g><text font-family="Calibri,Calibri_MSFontService,Arial" font-weight="400" font-size="13" transform="translate(1268.87 628)">70%</text></g><g><text font-family="Calibri,Calibri_MSFontService,Arial" font-weight="400" font-size="13" transform="translate(1332.88 628)">80%</text></g><g><text font-family="Calibri,Calibri_MSFontService,Arial" font-weight="400" font-size="13" transform="translate(1396.89 628)">90%</text></g><g><text font-family="Calibri,Calibri_MSFontService,Arial" font-weight="400" font-size="13" transform="translate(1457.52 628)">100%</text></g><g><text font-family="Calibri,Calibri_MSFontService,Arial" font-style="italic" font-weight="400" font-size="13" transform="translate(738.253 570)">Cuniculus paca</text></g><g><text font-family="Calibri,Calibri_MSFontService,Arial" font-style="italic" font-weight="400" font-size="13" transform="translate(736.893 586)">"Majas/picuro"</text></g><g><text font-family="Calibri,Calibri_MSFontService,Arial" font-style="italic" font-weight="400" font-size="13" transform="translate(699.747 512)">Dasyprocta sp "añuje"</text></g><g><text font-family="Calibri,Calibri_MSFontService,Arial" font-style="italic" font-weight="400" font-size="13" transform="translate(697.787 438)">Dasypus novemcinctus</text></g><g><text font-family="Calibri,Calibri_MSFontService,Arial" font-style="italic" font-weight="400" font-size="13" transform="translate(724.427 455)">"Carachupa"</text></g><g><text font-family="Calibri,Calibri_MSFontService,Arial" font-style="italic" font-weight="400" font-size="13" transform="translate(672.667 373)">Hydrochoerus hydrochaeris</text></g><g><text font-family="Calibri,Calibri_MSFontService,Arial" font-style="italic" font-weight="400" font-size="13" transform="translate(718.297 389)">"Ronsoco"</text></g><g><text font-family="Calibri,Calibri_MSFontService,Arial" font-style="italic" font-weight="400" font-size="13" transform="translate(711.673 307)">Mazama americana</text></g><g><text font-family="Calibri,Calibri_MSFontService,Arial" font-style="italic" font-weight="400" font-size="13" transform="translate(739.807 323)">"Venado"</text></g><g><text font-family="Calibri,Calibri_MSFontService,Arial" font-style="italic" font-weight="400" font-size="13" transform="translate(749.9 241)">Pecari tajacu</text></g><g><text font-family="Calibri,Calibri_MSFontService,Arial" font-style="italic" font-weight="400" font-size="13" transform="translate(763.173 257)">"Sajino"</text></g><g><text font-family="Calibri,Calibri_MSFontService,Arial" font-style="italic" font-weight="400" font-size="13" transform="translate(718.807 175)">Penelope jacquacu</text></g><g><text font-family="Calibri,Calibri_MSFontService,Arial" font-style="italic" font-weight="400" font-size="13" transform="translate(734.49 191)">"Pucacunga"</text></g><g><text font-family="Calibri,Calibri_MSFontService,Arial" font-style="italic" font-weight="400" font-size="13" transform="translate(676.073 109)">Pseudorinelepis genibarbis</text></g><g><text font-family="Calibri,Calibri_MSFontService,Arial" font-style="italic" font-weight="400" font-size="13" transform="translate(711.723 126)">"Carachama"</text></g><g><text font-family="Calibri,Calibri_MSFontService,Arial" font-style="italic" font-weight="400" font-size="13" transform="translate(740.3 44)">Tayassu pecari</text></g><g><text font-family="Calibri,Calibri_MSFontService,Arial" font-style="italic" font-weight="400" font-size="13" transform="translate(746.647 60)">"Huangana"</text></g><g><rect x="935" y="649" width="7" height="7" fill="#0070C0"/></g><g><text font-family="Calibri,Calibri_MSFontService,Arial" font-weight="400" font-size="13" transform="translate(945.07 657)">Peso total (Kg/ind.)</text></g><g><rect x="1067" y="649" width="8" height="7" fill="#002060"/></g><g><text font-family="Calibri,Calibri_MSFontService,Arial" font-weight="400" font-size="13" transform="translate(1077.71 657)">N° individuos</text></g><g><rect x="1167" y="649" width="8" height="7" fill="#595959"/></g><g><text font-family="Calibri,Calibri_MSFontService,Arial" font-weight="400" font-size="13" transform="translate(1177.88 657)">N°usuarios</text></g><rect x="664.5" y="0.500053" width="838" height="672" stroke="#D9D9D9" stroke-linejoin="round" stroke-miterlimit="10" fill="none"/></g></svg>