<svg width="604" height="393" xmlns="http://www.w3.org/2000/svg" xmlns:xlink="http://www.w3.org/1999/xlink" xml:space="preserve" overflow="hidden"><defs><clipPath id="clip0"><rect x="478" y="96" width="604" height="393"/></clipPath></defs><g clip-path="url(#clip0)" transform="translate(-478 -96)"><rect x="478" y="96" width="603" height="392" fill="#FFFFFF"/><g><path d="M673.66 110.302C743.348 110.302 805.916 153.009 831.306 217.907L673.66 279.583Z" stroke="#FFFFFF" stroke-width="2" stroke-linejoin="round" stroke-miterlimit="10" fill="#4472C4" fill-rule="evenodd"/></g><g><path d="M831.306 217.907C865.369 304.973 822.401 403.167 735.336 437.229 648.27 471.292 550.077 428.325 516.014 341.259 492.897 282.17 504.764 215.115 546.756 167.549L673.66 279.583Z" stroke="#FFFFFF" stroke-width="2" stroke-linejoin="round" stroke-miterlimit="10" fill="#595959" fill-rule="evenodd"/></g><g><path d="M546.756 167.55C561.575 150.764 579.577 137.084 599.719 127.304L673.66 279.583Z" stroke="#FFFFFF" stroke-width="2" stroke-linejoin="round" stroke-miterlimit="10" fill="#5B9BD5" fill-rule="evenodd"/></g><g><path d="M599.719 127.304C622.762 116.115 648.044 110.302 673.66 110.302L673.66 279.583Z" stroke="#FFFFFF" stroke-width="2" stroke-linejoin="round" stroke-miterlimit="10" fill="#264478" fill-rule="evenodd"/></g><g><text fill="#FFFFFF" font-family="Calibri,Calibri_MSFontService,Arial" font-weight="400" font-size="13" transform="translate(747.5 159)">106</text></g><g><text fill="#FFFFFF" font-family="Calibri,Calibri_MSFontService,Arial" font-weight="400" font-size="13" transform="translate(667.527 349)">375</text></g><g><text fill="#FFFFFF" font-family="Calibri,Calibri_MSFontService,Arial" font-weight="400" font-size="13" transform="translate(573.5 162)">35</text></g><g><text fill="#FFFFFF" font-family="Calibri,Calibri_MSFontService,Arial" font-weight="400" font-size="13" transform="translate(633.5 134)">40</text></g><g><rect x="883" y="183" width="8" height="8" stroke="#FFFFFF" stroke-width="2" stroke-linejoin="round" stroke-miterlimit="10" fill="#4472C4"/></g><g><text font-family="Calibri,Calibri_MSFontService,Arial" font-weight="400" font-size="15" transform="translate(894.294 191)">Kichwa</text></g><g><text font-family="Calibri,Calibri_MSFontService,Arial" font-weight="400" font-size="15" transform="translate(894.294 209)">( n= 7 ind.)</text></g><g><rect x="883" y="235" width="8" height="8" stroke="#FFFFFF" stroke-width="2" stroke-linejoin="round" stroke-miterlimit="10" fill="#595959"/></g><g><text font-family="Calibri,Calibri_MSFontService,Arial" font-weight="400" font-size="15" transform="translate(894.294 243)">Centros poblados</text></g><g><text font-family="Calibri,Calibri_MSFontService,Arial" font-weight="400" font-size="15" transform="translate(894.294 261)">( n= 19 ind.)</text></g><g><rect x="883" y="287" width="8" height="8" stroke="#FFFFFF" stroke-width="2" stroke-linejoin="round" stroke-miterlimit="10" fill="#5B9BD5"/></g><g><text font-family="Calibri,Calibri_MSFontService,Arial" font-weight="400" font-size="15" transform="translate(894.294 295)">Shipibo-konibo</text></g><g><text font-family="Calibri,Calibri_MSFontService,Arial" font-weight="400" font-size="15" transform="translate(894.294 313)">( n=5 ind.)</text></g><g><rect x="883" y="339" width="8" height="8" stroke="#FFFFFF" stroke-width="2" stroke-linejoin="round" stroke-miterlimit="10" fill="#264478"/></g><g><text font-family="Calibri,Calibri_MSFontService,Arial" font-weight="400" font-size="15" transform="translate(894.294 347)">Yine</text></g><g><text font-family="Calibri,Calibri_MSFontService,Arial" font-weight="400" font-size="15" transform="translate(894.294 365)">( n=1 ind.)</text></g><rect x="478.5" y="96.5001" width="603" height="392" stroke="#D9D9D9" stroke-linejoin="round" stroke-miterlimit="10" fill="none"/></g></svg>