<svg width="646" height="410" xmlns="http://www.w3.org/2000/svg" xmlns:xlink="http://www.w3.org/1999/xlink" xml:space="preserve" overflow="hidden"><defs><clipPath id="clip0"><rect x="430" y="1782" width="646" height="410"/></clipPath></defs><g clip-path="url(#clip0)" transform="translate(-430 -1782)"><rect x="430" y="1782" width="645" height="409" fill="#FFFFFF"/><g><path d="M500 1816 513 1816 513 2048 500 2048ZM536 1829 549 1829 549 2048 536 2048ZM572 1841 585 1841 585 2048 572 2048ZM609 1865 621 1865 621 2048 609 2048ZM645 1902 658 1902 658 2048 645 2048ZM681 1914 694 1914 694 2048 681 2048ZM717 1914 730 1914 730 2048 717 2048ZM753 1926 766 1926 766 2048 753 2048ZM789 1951 802 1951 802 2048 789 2048ZM825 1963 838 1963 838 2048 825 2048ZM862 1963 874 1963 874 2048 862 2048ZM898 1975 911 1975 911 2048 898 2048ZM934 1975 947 1975 947 2048 934 2048ZM970 1975 983 1975 983 2048 970 2048ZM1006 1987 1019 1987 1019 2048 1006 2048ZM1042 1987 1055 1987 1055 2048 1042 2048Z" fill="#2F5597"/></g><g><path d="M0 0 0.000104987 244" stroke="#000000" stroke-linejoin="round" stroke-miterlimit="10" fill="none" fill-rule="evenodd" transform="matrix(1 0 0 -1 488.5 2048.5)"/></g><g><path d="M488.5 2048.5 1066.5 2048.5" stroke="#000000" stroke-linejoin="round" stroke-miterlimit="10" fill="none" fill-rule="evenodd"/></g><g><text fill="#404040" font-family="Calibri,Calibri_MSFontService,Arial" font-weight="400" font-size="13" transform="translate(499.825 1807)">19</text></g><g><text fill="#404040" font-family="Calibri,Calibri_MSFontService,Arial" font-weight="400" font-size="13" transform="translate(535.962 1819)">18</text></g><g><text fill="#404040" font-family="Calibri,Calibri_MSFontService,Arial" font-weight="400" font-size="13" transform="translate(572.1 1832)">17</text></g><g><text fill="#404040" font-family="Calibri,Calibri_MSFontService,Arial" font-weight="400" font-size="13" transform="translate(608.237 1856)">15</text></g><g><text fill="#404040" font-family="Calibri,Calibri_MSFontService,Arial" font-weight="400" font-size="13" transform="translate(644.375 1892)">12</text></g><g><text fill="#404040" font-family="Calibri,Calibri_MSFontService,Arial" font-weight="400" font-size="13" transform="translate(680.512 1905)">11</text></g><g><text fill="#404040" font-family="Calibri,Calibri_MSFontService,Arial" font-weight="400" font-size="13" transform="translate(716.65 1905)">11</text></g><g><text fill="#404040" font-family="Calibri,Calibri_MSFontService,Arial" font-weight="400" font-size="13" transform="translate(752.787 1917)">10</text></g><g><text fill="#404040" font-family="Calibri,Calibri_MSFontService,Arial" font-weight="400" font-size="13" transform="translate(792.305 1941)">8</text></g><g><text fill="#404040" font-family="Calibri,Calibri_MSFontService,Arial" font-weight="400" font-size="13" transform="translate(828.442 1953)">7</text></g><g><text fill="#404040" font-family="Calibri,Calibri_MSFontService,Arial" font-weight="400" font-size="13" transform="translate(864.58 1953)">7</text></g><g><text fill="#404040" font-family="Calibri,Calibri_MSFontService,Arial" font-weight="400" font-size="13" transform="translate(900.717 1966)">6</text></g><g><text fill="#404040" font-family="Calibri,Calibri_MSFontService,Arial" font-weight="400" font-size="13" transform="translate(936.855 1966)">6</text></g><g><text fill="#404040" font-family="Calibri,Calibri_MSFontService,Arial" font-weight="400" font-size="13" transform="translate(972.992 1966)">6</text></g><g><text fill="#404040" font-family="Calibri,Calibri_MSFontService,Arial" font-weight="400" font-size="13" transform="translate(1009.13 1978)">5</text></g><g><text fill="#404040" font-family="Calibri,Calibri_MSFontService,Arial" font-weight="400" font-size="13" transform="translate(1045.27 1978)">5</text></g><g><text font-family="Calibri,Calibri_MSFontService,Arial" font-weight="400" font-size="13" transform="translate(469.388 2052)">0</text></g><g><text font-family="Calibri,Calibri_MSFontService,Arial" font-weight="400" font-size="13" transform="translate(469.388 2028)">2</text></g><g><text font-family="Calibri,Calibri_MSFontService,Arial" font-weight="400" font-size="13" transform="translate(469.388 2003)">4</text></g><g><text font-family="Calibri,Calibri_MSFontService,Arial" font-weight="400" font-size="13" transform="translate(469.388 1979)">6</text></g><g><text font-family="Calibri,Calibri_MSFontService,Arial" font-weight="400" font-size="13" transform="translate(469.388 1955)">8</text></g><g><text font-family="Calibri,Calibri_MSFontService,Arial" font-weight="400" font-size="13" transform="translate(462.628 1930)">10</text></g><g><text font-family="Calibri,Calibri_MSFontService,Arial" font-weight="400" font-size="13" transform="translate(462.628 1906)">12</text></g><g><text font-family="Calibri,Calibri_MSFontService,Arial" font-weight="400" font-size="13" transform="translate(462.628 1881)">14</text></g><g><text font-family="Calibri,Calibri_MSFontService,Arial" font-weight="400" font-size="13" transform="translate(462.628 1857)">16</text></g><g><text font-family="Calibri,Calibri_MSFontService,Arial" font-weight="400" font-size="13" transform="translate(462.628 1833)">18</text></g><g><text font-family="Calibri,Calibri_MSFontService,Arial" font-weight="400" font-size="13" transform="translate(462.628 1808)">20</text></g><g><text font-family="Calibri,Calibri_MSFontService,Arial" font-style="italic" font-weight="400" font-size="13" transform="matrix(6.12323e-17 -1 1 6.12323e-17 511.448 2165)">Mazama americana</text></g><g><text font-family="Calibri,Calibri_MSFontService,Arial" font-style="italic" font-weight="400" font-size="13" transform="matrix(6.12323e-17 -1 1 6.12323e-17 547.586 2148)">Tapirus terrestris</text></g><g><text font-family="Calibri,Calibri_MSFontService,Arial" font-style="italic" font-weight="400" font-size="13" transform="matrix(6.12323e-17 -1 1 6.12323e-17 583.723 2137)">Cuniculus paca</text></g><g><text font-family="Calibri,Calibri_MSFontService,Arial" font-style="italic" font-weight="400" font-size="13" transform="matrix(6.12323e-17 -1 1 6.12323e-17 619.861 2127)">Pecari tajacu</text></g><g><text font-family="Calibri,Calibri_MSFontService,Arial" font-style="italic" font-weight="400" font-size="13" transform="matrix(6.12323e-17 -1 1 6.12323e-17 655.998 2144)">Mitu tuberosum</text></g><g><text font-family="Calibri,Calibri_MSFontService,Arial" font-style="italic" font-weight="400" font-size="13" transform="matrix(6.12323e-17 -1 1 6.12323e-17 692.136 2135)">Panthera onca</text></g><g><text font-family="Calibri,Calibri_MSFontService,Arial" font-style="italic" font-weight="400" font-size="13" transform="matrix(6.12323e-17 -1 1 6.12323e-17 728.273 2161)">Penelope  jacquacu</text></g><g><text font-family="Calibri,Calibri_MSFontService,Arial" font-style="italic" font-weight="400" font-size="13" transform="matrix(6.12323e-17 -1 1 6.12323e-17 764.411 2169)">Ramphastos tucanus</text></g><g><text font-family="Calibri,Calibri_MSFontService,Arial" font-style="italic" font-weight="400" font-size="13" transform="matrix(6.12323e-17 -1 1 6.12323e-17 800.548 2179)">Dasypus novemcinctus</text></g><g><text font-family="Calibri,Calibri_MSFontService,Arial" font-style="italic" font-weight="400" font-size="13" transform="matrix(6.12323e-17 -1 1 6.12323e-17 836.686 2182)">Campephilus rubricollis</text></g><g><text font-family="Calibri,Calibri_MSFontService,Arial" font-style="italic" font-weight="400" font-size="13" transform="matrix(6.12323e-17 -1 1 6.12323e-17 872.823 2172)">Opisthocomus hoazin</text></g><g><text font-family="Calibri,Calibri_MSFontService,Arial" font-style="italic" font-weight="400" font-size="13" transform="matrix(6.12323e-17 -1 1 6.12323e-17 908.961 2121)">Cacicus cela</text></g><g><text font-family="Calibri,Calibri_MSFontService,Arial" font-style="italic" font-weight="400" font-size="13" transform="matrix(6.12323e-17 -1 1 6.12323e-17 945.098 2165)">Lagotrhix lagotricha</text></g><g><text font-family="Calibri,Calibri_MSFontService,Arial" font-style="italic" font-weight="400" font-size="13" transform="matrix(6.12323e-17 -1 1 6.12323e-17 981.235 2136)">Tayassu pecari</text></g><g><text font-family="Calibri,Calibri_MSFontService,Arial" font-style="italic" font-weight="400" font-size="13" transform="matrix(6.12323e-17 -1 1 6.12323e-17 1017.37 2147)">Ara chloropterus</text></g><g><text font-family="Calibri,Calibri_MSFontService,Arial" font-style="italic" font-weight="400" font-size="13" transform="matrix(6.12323e-17 -1 1 6.12323e-17 1053.51 2125)">Cebus apella</text></g><g><text font-family="Calibri,Calibri_MSFontService,Arial" font-weight="400" font-size="13" transform="matrix(6.12323e-17 -1 1 6.12323e-17 452.688 2017)">Número de puestos de vigillancia</text></g><rect x="430.5" y="1782.5" width="645" height="409" stroke="#D9D9D9" stroke-linejoin="round" stroke-miterlimit="10" fill="none"/></g></svg>