<svg width="646" height="410" xmlns="http://www.w3.org/2000/svg" xmlns:xlink="http://www.w3.org/1999/xlink" xml:space="preserve" overflow="hidden"><defs><clipPath id="clip0"><rect x="430" y="1782" width="646" height="410"/></clipPath></defs><g clip-path="url(#clip0)" transform="translate(-430 -1782)"><rect x="430" y="1782" width="645" height="409" fill="#FFFFFF"/><g><path d="M481 1819 494 1819 494 2051 481 2051ZM516 1831 529 1831 529 2051 516 2051ZM551 1843 564 1843 564 2051 551 2051ZM587 1868 599 1868 599 2051 587 2051ZM622 1904 634 1904 634 2051 622 2051ZM657 1917 669 1917 669 2051 657 2051ZM692 1917 704 1917 704 2051 692 2051ZM727 1929 740 1929 740 2051 727 2051ZM762 1953 775 1953 775 2051 762 2051ZM797 1965 810 1965 810 2051 797 2051ZM833 1965 845 1965 845 2051 833 2051ZM868 1978 880 1978 880 2051 868 2051ZM903 1978 915 1978 915 2051 903 2051ZM938 1978 950 1978 950 2051 938 2051ZM973 1990 986 1990 986 2051 973 2051ZM1008 1990 1021 1990 1021 2051 1008 2051Z" fill="#2F5597"/></g><g><path d="M0 0 0.000104987 244" stroke="#000000" stroke-linejoin="round" stroke-miterlimit="10" fill="none" fill-rule="evenodd" transform="matrix(1 0 0 -1 469.5 2050.5)"/></g><g><path d="M469.5 2050.5 1032.5 2050.5" stroke="#000000" stroke-linejoin="round" stroke-miterlimit="10" fill="none" fill-rule="evenodd"/></g><g><text fill="#404040" font-family="Calibri,Calibri_MSFontService,Arial" font-weight="400" font-size="13" transform="translate(480.658 1810)">19</text></g><g><text fill="#404040" font-family="Calibri,Calibri_MSFontService,Arial" font-weight="400" font-size="13" transform="translate(515.796 1822)">18</text></g><g><text fill="#404040" font-family="Calibri,Calibri_MSFontService,Arial" font-weight="400" font-size="13" transform="translate(550.933 1834)">17</text></g><g><text fill="#404040" font-family="Calibri,Calibri_MSFontService,Arial" font-weight="400" font-size="13" transform="translate(586.071 1859)">15</text></g><g><text fill="#404040" font-family="Calibri,Calibri_MSFontService,Arial" font-weight="400" font-size="13" transform="translate(621.208 1895)">12</text></g><g><text fill="#404040" font-family="Calibri,Calibri_MSFontService,Arial" font-weight="400" font-size="13" transform="translate(656.346 1907)">11</text></g><g><text fill="#404040" font-family="Calibri,Calibri_MSFontService,Arial" font-weight="400" font-size="13" transform="translate(691.483 1907)">11</text></g><g><text fill="#404040" font-family="Calibri,Calibri_MSFontService,Arial" font-weight="400" font-size="13" transform="translate(726.621 1920)">10</text></g><g><text fill="#404040" font-family="Calibri,Calibri_MSFontService,Arial" font-weight="400" font-size="13" transform="translate(765.138 1944)">8</text></g><g><text fill="#404040" font-family="Calibri,Calibri_MSFontService,Arial" font-weight="400" font-size="13" transform="translate(800.276 1956)">7</text></g><g><text fill="#404040" font-family="Calibri,Calibri_MSFontService,Arial" font-weight="400" font-size="13" transform="translate(835.413 1956)">7</text></g><g><text fill="#404040" font-family="Calibri,Calibri_MSFontService,Arial" font-weight="400" font-size="13" transform="translate(870.55 1968)">6</text></g><g><text fill="#404040" font-family="Calibri,Calibri_MSFontService,Arial" font-weight="400" font-size="13" transform="translate(905.688 1968)">6</text></g><g><text fill="#404040" font-family="Calibri,Calibri_MSFontService,Arial" font-weight="400" font-size="13" transform="translate(940.825 1968)">6</text></g><g><text fill="#404040" font-family="Calibri,Calibri_MSFontService,Arial" font-weight="400" font-size="13" transform="translate(975.963 1980)">5</text></g><g><text fill="#404040" font-family="Calibri,Calibri_MSFontService,Arial" font-weight="400" font-size="13" transform="translate(1011.1 1980)">5</text></g><g><text font-family="Calibri,Calibri_MSFontService,Arial" font-weight="400" font-size="13" transform="translate(450.722 2055)">0</text></g><g><text font-family="Calibri,Calibri_MSFontService,Arial" font-weight="400" font-size="13" transform="translate(450.722 2030)">2</text></g><g><text font-family="Calibri,Calibri_MSFontService,Arial" font-weight="400" font-size="13" transform="translate(450.722 2006)">4</text></g><g><text font-family="Calibri,Calibri_MSFontService,Arial" font-weight="400" font-size="13" transform="translate(450.722 1982)">6</text></g><g><text font-family="Calibri,Calibri_MSFontService,Arial" font-weight="400" font-size="13" transform="translate(450.722 1957)">8</text></g><g><text font-family="Calibri,Calibri_MSFontService,Arial" font-weight="400" font-size="13" transform="translate(443.962 1933)">10</text></g><g><text font-family="Calibri,Calibri_MSFontService,Arial" font-weight="400" font-size="13" transform="translate(443.962 1909)">12</text></g><g><text font-family="Calibri,Calibri_MSFontService,Arial" font-weight="400" font-size="13" transform="translate(443.962 1884)">14</text></g><g><text font-family="Calibri,Calibri_MSFontService,Arial" font-weight="400" font-size="13" transform="translate(443.962 1860)">16</text></g><g><text font-family="Calibri,Calibri_MSFontService,Arial" font-weight="400" font-size="13" transform="translate(443.962 1835)">18</text></g><g><text font-family="Calibri,Calibri_MSFontService,Arial" font-weight="400" font-size="13" transform="translate(443.962 1811)">20</text></g><g><text font-family="Calibri,Calibri_MSFontService,Arial" font-style="italic" font-weight="400" font-size="13" transform="matrix(6.12323e-17 -1 1 6.12323e-17 492.282 2167)">Mazama americana</text></g><g><text font-family="Calibri,Calibri_MSFontService,Arial" font-style="italic" font-weight="400" font-size="13" transform="matrix(6.12323e-17 -1 1 6.12323e-17 527.419 2151)">Tapirus terrestris</text></g><g><text font-family="Calibri,Calibri_MSFontService,Arial" font-style="italic" font-weight="400" font-size="13" transform="matrix(6.12323e-17 -1 1 6.12323e-17 562.557 2139)">Cuniculus paca</text></g><g><text font-family="Calibri,Calibri_MSFontService,Arial" font-style="italic" font-weight="400" font-size="13" transform="matrix(6.12323e-17 -1 1 6.12323e-17 597.694 2129)">Pecari tajacu</text></g><g><text font-family="Calibri,Calibri_MSFontService,Arial" font-style="italic" font-weight="400" font-size="13" transform="matrix(6.12323e-17 -1 1 6.12323e-17 632.832 2146)">Mitu tuberosum</text></g><g><text font-family="Calibri,Calibri_MSFontService,Arial" font-style="italic" font-weight="400" font-size="13" transform="matrix(6.12323e-17 -1 1 6.12323e-17 667.969 2138)">Panthera onca</text></g><g><text font-family="Calibri,Calibri_MSFontService,Arial" font-style="italic" font-weight="400" font-size="13" transform="matrix(6.12323e-17 -1 1 6.12323e-17 703.107 2163)">Penelope  jacquacu</text></g><g><text font-family="Calibri,Calibri_MSFontService,Arial" font-style="italic" font-weight="400" font-size="13" transform="matrix(6.12323e-17 -1 1 6.12323e-17 738.244 2172)">Ramphastos tucanus</text></g><g><text font-family="Calibri,Calibri_MSFontService,Arial" font-style="italic" font-weight="400" font-size="13" transform="matrix(6.12323e-17 -1 1 6.12323e-17 773.381 2181)">Dasypus novemcinctus</text></g><g><text font-family="Calibri,Calibri_MSFontService,Arial" font-style="italic" font-weight="400" font-size="13" transform="matrix(6.12323e-17 -1 1 6.12323e-17 808.519 2184)">Campephilus rubricollis</text></g><g><text font-family="Calibri,Calibri_MSFontService,Arial" font-style="italic" font-weight="400" font-size="13" transform="matrix(6.12323e-17 -1 1 6.12323e-17 843.656 2175)">Opisthocomus hoazin</text></g><g><text font-family="Calibri,Calibri_MSFontService,Arial" font-style="italic" font-weight="400" font-size="13" transform="matrix(6.12323e-17 -1 1 6.12323e-17 878.794 2124)">Cacicus cela</text></g><g><text font-family="Calibri,Calibri_MSFontService,Arial" font-style="italic" font-weight="400" font-size="13" transform="matrix(6.12323e-17 -1 1 6.12323e-17 913.931 2168)">Lagotrhix lagotricha</text></g><g><text font-family="Calibri,Calibri_MSFontService,Arial" font-style="italic" font-weight="400" font-size="13" transform="matrix(6.12323e-17 -1 1 6.12323e-17 949.069 2139)">Tayassu pecari</text></g><g><text font-family="Calibri,Calibri_MSFontService,Arial" font-style="italic" font-weight="400" font-size="13" transform="matrix(6.12323e-17 -1 1 6.12323e-17 984.206 2149)">Ara chloropterus</text></g><g><text font-family="Calibri,Calibri_MSFontService,Arial" font-style="italic" font-weight="400" font-size="13" transform="matrix(6.12323e-17 -1 1 6.12323e-17 1019.34 2127)">Cebus apella</text></g><rect x="430.5" y="1782.5" width="645" height="409" stroke="#D9D9D9" stroke-linejoin="round" stroke-miterlimit="10" fill="none"/></g></svg>