<svg width="657" height="424" xmlns="http://www.w3.org/2000/svg" xmlns:xlink="http://www.w3.org/1999/xlink" xml:space="preserve" overflow="hidden"><defs><clipPath id="clip0"><rect x="891" y="810" width="657" height="424"/></clipPath></defs><g clip-path="url(#clip0)" transform="translate(-891 -810)"><rect x="892" y="810" width="655" height="423" fill="#FFFFFF"/><g><path d="M974 1088 1007 1088 1007 1117 974 1117ZM1090 1009 1123 1009 1123 1117 1090 1117ZM1205 991 1238 991 1238 1117 1205 1117ZM1321 1114 1354 1114 1354 1117 1321 1117ZM1437 1102 1470 1102 1470 1117 1437 1117Z" fill="#4472C4"/></g><g><path d="M1007 1075 1040 1075 1040 1117 1007 1117ZM1123 963 1156 963 1156 1117 1123 1117ZM1238 868 1271 868 1271 1117 1238 1117ZM1354 1097 1387 1097 1387 1117 1354 1117ZM1470 1069 1503 1069 1503 1117 1470 1117Z" fill="#A7B5DB"/></g><g><path d="M0 0 0.000104987 290" stroke="#000000" stroke-linejoin="round" stroke-miterlimit="10" fill="none" fill-rule="evenodd" transform="matrix(1 0 0 -1 949.5 1116.5)"/></g><g><path d="M945.5 1116.5 949.5 1116.5M945.5 1068.5 949.5 1068.5M945.5 1020.5 949.5 1020.5M945.5 971.5 949.5 971.5M945.5 923.5 949.5 923.5M945.5 874.5 949.5 874.5M945.5 826.5 949.5 826.5" stroke="#000000" stroke-linejoin="round" stroke-miterlimit="10" fill="none"/></g><g><path d="M949.5 1116.5 1527.5 1116.5" stroke="#000000" stroke-linejoin="round" stroke-miterlimit="10" fill="none" fill-rule="evenodd"/></g><g><path d="M949.5 1116.5 949.5 1121.5M1064.5 1116.5 1064.5 1121.5M1180.5 1116.5 1180.5 1121.5M1296.5 1116.5 1296.5 1121.5M1411.5 1116.5 1411.5 1121.5M1527.5 1116.5 1527.5 1121.5" stroke="#000000" stroke-linejoin="round" stroke-miterlimit="10" fill="none"/></g><g><text font-family="Calibri,Calibri_MSFontService,Arial" font-weight="400" font-size="12" transform="translate(984.565 1078)">30</text></g><g><text font-family="Calibri,Calibri_MSFontService,Arial" font-weight="400" font-size="12" transform="translate(1097.13 999)">112</text></g><g><text font-family="Calibri,Calibri_MSFontService,Arial" font-weight="400" font-size="12" transform="translate(1212.74 981)">130</text></g><g><text font-family="Calibri,Calibri_MSFontService,Arial" font-weight="400" font-size="12" transform="translate(1334.43 1104)">3</text></g><g><text font-family="Calibri,Calibri_MSFontService,Arial" font-weight="400" font-size="12" transform="translate(1447 1093)">15</text></g><g><text font-family="Calibri,Calibri_MSFontService,Arial" font-weight="400" font-size="12" transform="translate(1017.6 1066)">43</text></g><g><text font-family="Calibri,Calibri_MSFontService,Arial" font-weight="400" font-size="12" transform="translate(1130.16 953)">159</text></g><g><text font-family="Calibri,Calibri_MSFontService,Arial" font-weight="400" font-size="12" transform="translate(1245.77 858)">257</text></g><g><text font-family="Calibri,Calibri_MSFontService,Arial" font-weight="400" font-size="12" transform="translate(1364.42 1087)">21</text></g><g><text font-family="Calibri,Calibri_MSFontService,Arial" font-weight="400" font-size="12" transform="translate(1480.03 1059)">50</text></g><g><text font-family="Calibri,Calibri_MSFontService,Arial" font-weight="400" font-size="12" transform="translate(932.144 1120)">0</text></g><g><text font-family="Calibri,Calibri_MSFontService,Arial" font-weight="400" font-size="12" transform="translate(926.064 1072)">50</text></g><g><text font-family="Calibri,Calibri_MSFontService,Arial" font-weight="400" font-size="12" transform="translate(919.984 1023)">100</text></g><g><text font-family="Calibri,Calibri_MSFontService,Arial" font-weight="400" font-size="12" transform="translate(919.984 975)">150</text></g><g><text font-family="Calibri,Calibri_MSFontService,Arial" font-weight="400" font-size="12" transform="translate(919.984 926)">200</text></g><g><text font-family="Calibri,Calibri_MSFontService,Arial" font-weight="400" font-size="12" transform="translate(919.984 878)">250</text></g><g><text font-family="Calibri,Calibri_MSFontService,Arial" font-weight="400" font-size="12" transform="translate(919.984 829)">300</text></g><g><text font-family="Calibri,Calibri_MSFontService,Arial" font-weight="400" font-size="15" transform="translate(960.44 1140)">Planificación de</text></g><g><text font-family="Calibri,Calibri_MSFontService,Arial" font-weight="400" font-size="15" transform="translate(991.29 1158)">inicio</text></g><g><text font-family="Calibri,Calibri_MSFontService,Arial" font-weight="400" font-size="15" transform="translate(1071.48 1140)">Sesión 1; Gestión</text></g><g><text font-family="Calibri,Calibri_MSFontService,Arial" font-weight="400" font-size="15" transform="translate(1074.81 1158)">Participativa del</text></g><g><text font-family="Calibri,Calibri_MSFontService,Arial" font-weight="400" font-size="15" transform="translate(1102.66 1176)">PNCAZ</text></g><g><text font-family="Calibri,Calibri_MSFontService,Arial" font-weight="400" font-size="15" transform="translate(1211.75 1140)">Sesion 2;</text></g><g><text font-family="Calibri,Calibri_MSFontService,Arial" font-weight="400" font-size="15" transform="translate(1184.16 1158)">Contribuciones de</text></g><g><text font-family="Calibri,Calibri_MSFontService,Arial" font-weight="400" font-size="15" transform="translate(1196.64 1176)">los bosques al</text></g><g><text font-family="Calibri,Calibri_MSFontService,Arial" font-weight="400" font-size="15" transform="translate(1183.84 1194)">bienestar humano</text></g><g><text font-family="Calibri,Calibri_MSFontService,Arial" font-weight="400" font-size="15" transform="translate(1303.02 1140)">Sesión 3; Cambio</text></g><g><text font-family="Calibri,Calibri_MSFontService,Arial" font-weight="400" font-size="15" transform="translate(1324.38 1158)">Climático.</text></g><g><text font-family="Calibri,Calibri_MSFontService,Arial" font-weight="400" font-size="15" transform="translate(1419.3 1140)">Sesión 5; Calidad</text></g><g><text font-family="Calibri,Calibri_MSFontService,Arial" font-weight="400" font-size="15" transform="translate(1448.07 1158)">de vida</text></g><g><text font-family="Calibri,Calibri_MSFontService,Arial" font-weight="400" font-size="15" transform="matrix(6.12323e-17 -1 1 6.12323e-17 908.378 1032)">n</text></g><g><text font-family="Calibri,Calibri_MSFontService,Arial" font-weight="400" font-size="15" transform="matrix(6.12323e-17 -1 1 6.12323e-17 908.378 1025)">°</text></g><g><text font-family="Calibri,Calibri_MSFontService,Arial" font-weight="400" font-size="15" transform="matrix(6.12323e-17 -1 1 6.12323e-17 908.378 1020)">Beneficiarios</text></g><g><text font-family="Calibri,Calibri_MSFontService,Arial" font-weight="400" font-size="15" transform="translate(1030.43 1217)">Sesiones de EANF</text></g><g><rect x="1447" y="849" width="7" height="6" fill="#4472C4"/></g><g><text font-family="Calibri,Calibri_MSFontService,Arial" font-weight="400" font-size="12" transform="translate(1456.43 855)">N°mujeres</text></g><g><rect x="1447" y="871" width="7" height="7" fill="#A7B5DB"/></g><g><text font-family="Calibri,Calibri_MSFontService,Arial" font-weight="400" font-size="12" transform="translate(1456.43 877)">N°varones</text></g><rect x="892.5" y="810.5" width="655" height="423" stroke="#D9D9D9" stroke-linejoin="round" stroke-miterlimit="10" fill="none"/></g></svg>