<svg width="573" height="513" xmlns="http://www.w3.org/2000/svg" xmlns:xlink="http://www.w3.org/1999/xlink" xml:space="preserve" overflow="hidden"><defs><clipPath id="clip0"><rect x="578" y="42" width="573" height="513"/></clipPath></defs><g clip-path="url(#clip0)" transform="translate(-578 -42)"><rect x="578" y="42" width="572" height="512" fill="#FFFFFF"/><g><path d="M769 476 753 476 753 458 769 458ZM896 432 753 432 753 415 896 415ZM796 389 753 389 753 372 796 372ZM812 346 753 346 753 329 812 329ZM918 303 753 303 753 286 918 286ZM928 260 753 260 753 242 928 242ZM928 216 753 216 753 199 928 199ZM820 173 753 173 753 156 820 156ZM823 130 753 130 753 113 823 113ZM764 87 753 87 753 70 764 70Z" fill="#4472C4"/></g><g><path d="M771 476 769 476 769 458 771 458ZM945 432 896 432 896 415 945 415ZM812 389 796 389 796 372 812 372ZM835 346 812 346 812 329 835 329ZM987 303 918 303 918 286 987 286ZM827 173 820 173 820 156 827 156ZM838 130 823 130 823 113 838 113Z" fill="#ED7D31"/></g><g><path d="M786 476 771 476 771 458 786 458ZM1045 432 945 432 945 415 1045 415ZM838 389 812 389 812 372 838 372ZM872 346 835 346 835 329 872 329ZM1084 303 987 303 987 286 1084 286ZM887 173 827 173 827 156 887 156ZM894 130 838 130 838 113 894 113ZM775 87 764 87 764 70 775 70Z" fill="#A5A5A5"/></g><g><path d="M752.5 488.5 1125.5 488.5" stroke="#000000" stroke-linejoin="round" stroke-miterlimit="10" fill="none" fill-rule="evenodd"/></g><g><path d="M0 0 0.000104987 432" stroke="#000000" stroke-linejoin="round" stroke-miterlimit="10" fill="none" fill-rule="evenodd" transform="matrix(1 0 0 -1 752.5 488.5)"/></g><g><text font-family="Calibri,Calibri_MSFontService,Arial" font-weight="400" font-size="12" transform="translate(758.043 471)">9</text></g><g><text font-family="Calibri,Calibri_MSFontService,Arial" font-weight="400" font-size="12" transform="translate(818.327 427)">77</text></g><g><text font-family="Calibri,Calibri_MSFontService,Arial" font-weight="400" font-size="12" transform="translate(768.04 384)">23</text></g><g><text font-family="Calibri,Calibri_MSFontService,Arial" font-weight="400" font-size="12" transform="translate(776.421 341)">32</text></g><g><text font-family="Calibri,Calibri_MSFontService,Arial" font-weight="400" font-size="12" transform="translate(829.501 298)">89</text></g><g><text font-family="Calibri,Calibri_MSFontService,Arial" font-weight="400" font-size="12" transform="translate(834.157 255)">94</text></g><g><text font-family="Calibri,Calibri_MSFontService,Arial" font-weight="400" font-size="12" transform="translate(834.157 211)">94</text></g><g><text font-family="Calibri,Calibri_MSFontService,Arial" font-weight="400" font-size="12" transform="translate(780.146 168)">36</text></g><g><text font-family="Calibri,Calibri_MSFontService,Arial" font-weight="400" font-size="12" transform="translate(782.009 125)">38</text></g><g><text font-family="Calibri,Calibri_MSFontService,Arial" font-weight="400" font-size="12" transform="translate(755.249 82)">6</text></g><g><text font-family="Calibri,Calibri_MSFontService,Arial" font-weight="400" font-size="13" transform="translate(749.322 510)">0</text></g><g><text font-family="Calibri,Calibri_MSFontService,Arial" font-weight="400" font-size="13" transform="translate(783.191 510)">20</text></g><g><text font-family="Calibri,Calibri_MSFontService,Arial" font-weight="400" font-size="13" transform="translate(820.44 510)">40</text></g><g><text font-family="Calibri,Calibri_MSFontService,Arial" font-weight="400" font-size="13" transform="translate(857.689 510)">60</text></g><g><text font-family="Calibri,Calibri_MSFontService,Arial" font-weight="400" font-size="13" transform="translate(894.938 510)">80</text></g><g><text font-family="Calibri,Calibri_MSFontService,Arial" font-weight="400" font-size="13" transform="translate(928.808 510)">100</text></g><g><text font-family="Calibri,Calibri_MSFontService,Arial" font-weight="400" font-size="13" transform="translate(966.057 510)">120</text></g><g><text font-family="Calibri,Calibri_MSFontService,Arial" font-weight="400" font-size="13" transform="translate(1003.31 510)">140</text></g><g><text font-family="Calibri,Calibri_MSFontService,Arial" font-weight="400" font-size="13" transform="translate(1040.56 510)">160</text></g><g><text font-family="Calibri,Calibri_MSFontService,Arial" font-weight="400" font-size="13" transform="translate(1077.8 510)">180</text></g><g><text font-family="Calibri,Calibri_MSFontService,Arial" font-weight="400" font-size="13" transform="translate(1115.05 510)">200</text></g><g><text font-family="Calibri,Calibri_MSFontService,Arial" font-weight="400" font-size="13" transform="translate(660.487 471)">Bajo Chimbote</text></g><g><text font-family="Calibri,Calibri_MSFontService,Arial" font-weight="400" font-size="13" transform="translate(690.241 428)">Consuelo</text></g><g><text font-family="Calibri,Calibri_MSFontService,Arial" font-weight="400" font-size="13" transform="translate(617.214 385)">Inca Roca de Loboyacu</text></g><g><text font-family="Calibri,Calibri_MSFontService,Arial" font-weight="400" font-size="13" transform="translate(664.954 341)">Jorge Basadre</text></g><g><text font-family="Calibri,Calibri_MSFontService,Arial" font-weight="400" font-size="13" transform="translate(688.294 298)">Maronilla</text></g><g><text font-family="Calibri,Calibri_MSFontService,Arial" font-weight="400" font-size="13" transform="translate(684.187 255)">Miraflores</text></g><g><text font-family="Calibri,Calibri_MSFontService,Arial" font-weight="400" font-size="13" transform="translate(691.967 212)">Progreso</text></g><g><text font-family="Calibri,Calibri_MSFontService,Arial" font-weight="400" font-size="13" transform="translate(658.267 169)">Rio Azul Ibañez</text></g><g><text font-family="Calibri,Calibri_MSFontService,Arial" font-weight="400" font-size="13" transform="translate(586.667 126)">San Antonio de Alto Marona</text></g><g><text font-family="Calibri,Calibri_MSFontService,Arial" font-weight="400" font-size="13" transform="translate(622.547 82)">Santa Rosa la Cumbre</text></g><g><rect x="715" y="530" width="7" height="8" fill="#4472C4"/></g><g><text font-family="Calibri,Calibri_MSFontService,Arial" font-weight="400" font-size="13" transform="translate(725.451 538)">N° total beneficiarios</text></g><g><rect x="858" y="530" width="7" height="8" fill="#ED7D31"/></g><g><text font-family="Calibri,Calibri_MSFontService,Arial" font-weight="400" font-size="13" transform="translate(868.083 538)">N° Mujeres</text></g><g><rect x="947" y="530" width="7" height="8" fill="#A5A5A5"/></g><g><text font-family="Calibri,Calibri_MSFontService,Arial" font-weight="400" font-size="13" transform="translate(957.568 538)">N° Varones</text></g><rect x="578.5" y="42.5001" width="572" height="512" stroke="#D9D9D9" stroke-linejoin="round" stroke-miterlimit="10" fill="none"/></g></svg>