<svg width="662" height="438" xmlns="http://www.w3.org/2000/svg" xmlns:xlink="http://www.w3.org/1999/xlink" xml:space="preserve" overflow="hidden"><defs><clipPath id="clip0"><rect x="2658" y="90" width="662" height="438"/></clipPath></defs><g clip-path="url(#clip0)" transform="translate(-2658 -90)"><rect x="2658" y="90" width="662" height="438" fill="#FFFFFF"/><g><path d="M2951 478 2858 478 2858 446 2951 446ZM3137 376 2858 376 2858 344 3137 344ZM2951 274 2858 274 2858 242 2951 242ZM3231 171 2858 171 2858 139 3231 139Z" fill="#002060"/></g><g><path d="M0 0 0.000104987 409" stroke="#D9D9D9" stroke-linejoin="round" stroke-miterlimit="10" fill="none" fill-rule="evenodd" transform="matrix(1 0 0 -1 2857.5 513.5)"/></g><g><path d="M2755.5 513.5 2857.5 513.5M2755.5 308.5 2857.5 308.5M2755.5 206.5 2857.5 206.5M2755.5 104.5 2857.5 104.5" stroke="#D9D9D9" stroke-linejoin="round" stroke-miterlimit="10" fill="none"/></g><g><path d="M2725.5 513.5 2755.5 513.5M2725.5 308.5 2755.5 308.5M2725.5 206.5 2755.5 206.5M2725.5 104.5 2755.5 104.5" stroke="#D9D9D9" stroke-linejoin="round" stroke-miterlimit="10" fill="none"/></g><g><path d="M2696.5 513.5 2725.5 513.5M2696.5 206.5 2725.5 206.5M2696.5 104.5 2725.5 104.5" stroke="#D9D9D9" stroke-linejoin="round" stroke-miterlimit="10" fill="none"/></g><g><text fill="#FFFFFF" font-family="Bahnschrift,Bahnschrift_MSFontService,Arial" font-weight="700" font-size="16" transform="translate(2914.83 469)">25%</text></g><g><text fill="#FFFFFF" font-family="Bahnschrift,Bahnschrift_MSFontService,Arial" font-weight="700" font-size="16" transform="translate(2942.79 469)"> </text></g><g><text fill="#FFFFFF" font-family="Bahnschrift,Bahnschrift_MSFontService,Arial" font-weight="700" font-size="16" transform="translate(3101.51 366)">75%</text></g><g><text fill="#FFFFFF" font-family="Bahnschrift,Bahnschrift_MSFontService,Arial" font-weight="700" font-size="16" transform="translate(3129.27 366)"> </text></g><g><text fill="#FFFFFF" font-family="Bahnschrift,Bahnschrift_MSFontService,Arial" font-weight="700" font-size="16" transform="translate(2914.83 264)">25%</text></g><g><text fill="#FFFFFF" font-family="Bahnschrift,Bahnschrift_MSFontService,Arial" font-weight="700" font-size="16" transform="translate(2942.79 264)"> </text></g><g><text fill="#FFFFFF" font-family="Bahnschrift,Bahnschrift_MSFontService,Arial" font-weight="700" font-size="16" transform="translate(3188.54 162)">100%</text></g><g><text fill="#FFFFFF" font-family="Bahnschrift,Bahnschrift_MSFontService,Arial" font-weight="700" font-size="16" transform="translate(3222.51 162)"> </text></g><g><text font-family="Bahnschrift,Bahnschrift_MSFontService,Arial" font-weight="400" font-size="13" transform="translate(2756.17 466)">Ram贸n Castilla</text></g><g><text font-family="Bahnschrift,Bahnschrift_MSFontService,Arial" font-weight="400" font-size="13" transform="translate(2775.89 364)">Sangamayo</text></g><g><text font-family="Bahnschrift,Bahnschrift_MSFontService,Arial" font-weight="400" font-size="13" transform="translate(2789.67 262)">Progreso</text></g><g><text font-family="Bahnschrift,Bahnschrift_MSFontService,Arial" font-weight="400" font-size="13" transform="translate(2784.19 160)">Inca Huasi</text></g><g><text font-family="Bahnschrift,Bahnschrift_MSFontService,Arial" font-weight="400" font-size="13" transform="matrix(6.12323e-17 -1 1 6.12323e-17 2739.76 451)">Actualizaci贸n</text></g><g><text font-family="Bahnschrift,Bahnschrift_MSFontService,Arial" font-weight="400" font-size="13" transform="matrix(6.12323e-17 -1 1 6.12323e-17 2739.76 293)">Elaboraci贸n</text></g><g><text font-family="Bahnschrift,Bahnschrift_MSFontService,Arial" font-weight="400" font-size="13" transform="matrix(6.12323e-17 -1 1 6.12323e-17 2739.76 191)">Elaboraci贸n</text></g><g><text font-family="Bahnschrift,Bahnschrift_MSFontService,Arial" font-weight="400" font-size="13" transform="matrix(6.12323e-17 -1 1 6.12323e-17 2710.34 392)">TARAPOTO</text></g><g><text font-family="Bahnschrift,Bahnschrift_MSFontService,Arial" font-weight="400" font-size="13" transform="matrix(6.12323e-17 -1 1 6.12323e-17 2710.34 184)">TOCACHE</text></g><g><text font-family="Calibri,Calibri_MSFontService,Arial" font-weight="400" font-size="16" transform="matrix(6.12323e-17 -1 1 6.12323e-17 2689.81 378)">Porcentaje de avance</text></g></g></svg>