<svg width="367" height="295" xmlns="http://www.w3.org/2000/svg" xmlns:xlink="http://www.w3.org/1999/xlink" xml:space="preserve" overflow="hidden"><defs><clipPath id="clip0"><rect x="2648" y="591" width="367" height="295"/></clipPath></defs><g clip-path="url(#clip0)" transform="translate(-2648 -591)"><g><path d="M2972 821 2830 821 2830 808 2972 808Z" fill="#002060"/></g><g><path d="M0 0 0.000104987 266" stroke="#D9D9D9" stroke-linejoin="round" stroke-miterlimit="10" fill="none" fill-rule="evenodd" transform="matrix(1 0 0 -1 2829.5 871.5)"/></g><g><path d="M2683.5 871.5 2829.5 871.5M2683.5 795.5 2829.5 795.5M2683.5 605.5 2829.5 605.5" stroke="#D9D9D9" stroke-linejoin="round" stroke-miterlimit="10" fill="none"/></g><g><path d="M2654.5 871.5 2683.5 871.5M2654.5 795.5 2683.5 795.5M2654.5 605.5 2683.5 605.5" stroke="#D9D9D9" stroke-linejoin="round" stroke-miterlimit="10" fill="none"/></g><g><text font-family="Calibri,Calibri_MSFontService,Arial" font-weight="400" font-size="13" transform="translate(2837.61 857)">0%</text></g><g><text font-family="Calibri,Calibri_MSFontService,Arial" font-weight="400" font-size="13" transform="translate(2979.98 819)">25%</text></g><g><text font-family="Calibri,Calibri_MSFontService,Arial" font-weight="400" font-size="13" transform="translate(2837.61 781)">0%</text></g><g><text font-family="Calibri,Calibri_MSFontService,Arial" font-weight="400" font-size="13" transform="translate(2837.61 743)">0%</text></g><g><text font-family="Calibri,Calibri_MSFontService,Arial" font-weight="400" font-size="13" transform="translate(2837.61 705)">0%</text></g><g><text font-family="Calibri,Calibri_MSFontService,Arial" font-weight="400" font-size="13" transform="translate(2837.61 667)">0%</text></g><g><text font-family="Calibri,Calibri_MSFontService,Arial" font-weight="400" font-size="13" transform="translate(2837.61 629)">0%</text></g><g><text font-family="Calibri,Calibri_MSFontService,Arial" font-weight="400" font-size="13" transform="translate(2751.48 857)">San Lorenzo</text></g><g><text font-family="Calibri,Calibri_MSFontService,Arial" font-weight="400" font-size="13" transform="translate(2744.24 819)">Manco Capac</text></g><g><text font-family="Calibri,Calibri_MSFontService,Arial" font-weight="400" font-size="13" transform="translate(2772.43 781)">Libertad</text></g><g><text font-family="Calibri,Calibri_MSFontService,Arial" font-weight="400" font-size="13" transform="translate(2779.77 743)">Isolaya</text></g><g><text font-family="Calibri,Calibri_MSFontService,Arial" font-weight="400" font-size="13" transform="translate(2744.58 704)">Nuevo Egipto</text></g><g><text font-family="Calibri,Calibri_MSFontService,Arial" font-weight="400" font-size="13" transform="translate(2759.18 666)">La Cumbre</text></g><g><text font-family="Calibri,Calibri_MSFontService,Arial" font-weight="400" font-size="13" transform="translate(2684.98 628)">Santa Rosa de Pirococha</text></g><g><text font-family="Calibri,Calibri_MSFontService,Arial" font-weight="400" font-size="13" transform="matrix(6.12323e-17 -1 1 6.12323e-17 2668.34 869)">Actualización</text></g><g><text font-family="Calibri,Calibri_MSFontService,Arial" font-weight="400" font-size="13" transform="matrix(6.12323e-17 -1 1 6.12323e-17 2668.34 732)">Elaboración</text></g></g></svg>