<svg width="249" height="215" xmlns="http://www.w3.org/2000/svg" xmlns:xlink="http://www.w3.org/1999/xlink" xml:space="preserve" overflow="hidden"><defs><clipPath id="clip0"><rect x="659" y="140" width="249" height="215"/></clipPath></defs><g clip-path="url(#clip0)" transform="translate(-659 -140)"><rect x="659" y="140" width="249" height="215" fill="#FFFFFF"/><g><path d="M817 332 801 332 801 323 817 323ZM832 305 801 305 801 296 832 296ZM832 279 801 279 801 270 832 270ZM832 252 801 252 801 243 832 243ZM847 226 801 226 801 217 847 217ZM863 199 801 199 801 190 863 190ZM863 173 801 173 801 164 863 164Z" fill="#002060"/></g><g><text font-family="Calibri,Calibri_MSFontService,Arial" font-weight="400" font-size="13" transform="translate(824.643 332)">25%</text></g><g><text font-family="Calibri,Calibri_MSFontService,Arial" font-weight="400" font-size="13" transform="translate(840 306)">50%</text></g><g><text font-family="Calibri,Calibri_MSFontService,Arial" font-weight="400" font-size="13" transform="translate(840 279)">50%</text></g><g><text font-family="Calibri,Calibri_MSFontService,Arial" font-weight="400" font-size="13" transform="translate(840 253)">50%</text></g><g><text font-family="Calibri,Calibri_MSFontService,Arial" font-weight="400" font-size="13" transform="translate(855.356 226)">75%</text></g><g><text font-family="Calibri,Calibri_MSFontService,Arial" font-weight="400" font-size="13" transform="translate(870.713 200)">100%</text></g><g><text font-family="Calibri,Calibri_MSFontService,Arial" font-weight="400" font-size="13" transform="translate(870.713 173)">100%</text></g><g><text font-family="Calibri,Calibri_MSFontService,Arial" font-weight="400" font-size="13" transform="translate(696.191 331)">Nueva Esperanza</text></g><g><text font-family="Calibri,Calibri_MSFontService,Arial" font-weight="400" font-size="13" transform="translate(749.405 305)">Gossen</text></g><g><text font-family="Calibri,Calibri_MSFontService,Arial" font-weight="400" font-size="13" transform="translate(734.652 278)">Cachiyacu</text></g><g><text font-family="Calibri,Calibri_MSFontService,Arial" font-weight="400" font-size="13" transform="translate(732.192 252)">Río Blanco</text></g><g><text font-family="Calibri,Calibri_MSFontService,Arial" font-weight="400" font-size="13" transform="translate(707.618 225)">San Juan Km33</text></g><g><text font-family="Calibri,Calibri_MSFontService,Arial" font-weight="400" font-size="13" transform="translate(705.278 199)">Montaña verde</text></g><g><text font-family="Calibri,Calibri_MSFontService,Arial" font-weight="400" font-size="13" transform="translate(709.072 172)">Bajo Chimbote</text></g><g><text font-family="Calibri,Calibri_MSFontService,Arial" font-weight="400" font-size="13" transform="matrix(6.12323e-17 -1 1 6.12323e-17 679.55 280)">Elaboración</text></g></g></svg>