<svg width="397" height="282" xmlns="http://www.w3.org/2000/svg" xmlns:xlink="http://www.w3.org/1999/xlink" xml:space="preserve" overflow="hidden"><defs><clipPath id="clip0"><rect x="2648" y="978" width="397" height="282"/></clipPath></defs><g clip-path="url(#clip0)" transform="translate(-2648 -978)"><rect x="2648" y="978" width="397" height="282" fill="#FFFFFF"/><g><path d="M2997 1198 2830 1198 2830 1185 2997 1185Z" fill="#002060"/></g><g><path d="M0 0 0.000104987 253" stroke="#D9D9D9" stroke-linejoin="round" stroke-miterlimit="10" fill="none" fill-rule="evenodd" transform="matrix(1 0 0 -1 2829.5 1245.5)"/></g><g><path d="M2683.5 1245.5 2829.5 1245.5M2683.5 1173.5 2829.5 1173.5M2683.5 992.5 2829.5 992.5" stroke="#D9D9D9" stroke-linejoin="round" stroke-miterlimit="10" fill="none"/></g><g><path d="M2654.5 1245.5 2683.5 1245.5M2654.5 1173.5 2683.5 1173.5M2654.5 992.5 2683.5 992.5" stroke="#D9D9D9" stroke-linejoin="round" stroke-miterlimit="10" fill="none"/></g><g><text font-family="Calibri,Calibri_MSFontService,Arial" font-weight="400" font-size="13" transform="translate(2837.61 1233)">0%</text></g><g><text font-family="Calibri,Calibri_MSFontService,Arial" font-weight="400" font-size="13" transform="translate(3005.17 1196)">25%</text></g><g><text font-family="Calibri,Calibri_MSFontService,Arial" font-weight="400" font-size="13" transform="translate(2837.61 1160)">0%</text></g><g><text font-family="Calibri,Calibri_MSFontService,Arial" font-weight="400" font-size="13" transform="translate(2837.61 1124)">0%</text></g><g><text font-family="Calibri,Calibri_MSFontService,Arial" font-weight="400" font-size="13" transform="translate(2837.61 1088)">0%</text></g><g><text font-family="Calibri,Calibri_MSFontService,Arial" font-weight="400" font-size="13" transform="translate(2837.61 1052)">0%</text></g><g><text font-family="Calibri,Calibri_MSFontService,Arial" font-weight="400" font-size="13" transform="translate(2837.61 1016)">0%</text></g><g><text font-family="Calibri,Calibri_MSFontService,Arial" font-weight="400" font-size="13" transform="translate(2751.48 1232)">San Lorenzo</text></g><g><text font-family="Calibri,Calibri_MSFontService,Arial" font-weight="400" font-size="13" transform="translate(2744.24 1196)">Manco Capac</text></g><g><text font-family="Calibri,Calibri_MSFontService,Arial" font-weight="400" font-size="13" transform="translate(2772.43 1159)">Libertad</text></g><g><text font-family="Calibri,Calibri_MSFontService,Arial" font-weight="400" font-size="13" transform="translate(2779.77 1123)">Isolaya</text></g><g><text font-family="Calibri,Calibri_MSFontService,Arial" font-weight="400" font-size="13" transform="translate(2744.58 1087)">Nuevo Egipto</text></g><g><text font-family="Calibri,Calibri_MSFontService,Arial" font-weight="400" font-size="13" transform="translate(2759.18 1051)">La Cumbre</text></g><g><text font-family="Calibri,Calibri_MSFontService,Arial" font-weight="400" font-size="13" transform="translate(2684.98 1015)">Santa Rosa de Pirococha</text></g><g><text font-family="Calibri,Calibri_MSFontService,Arial" font-weight="400" font-size="13" transform="matrix(6.12323e-17 -1 1 6.12323e-17 2668.34 1245)">Actualización</text></g><g><text font-family="Calibri,Calibri_MSFontService,Arial" font-weight="400" font-size="13" transform="matrix(6.12323e-17 -1 1 6.12323e-17 2668.34 1115)">Elaboración</text></g></g></svg>