<svg width="329" height="213" xmlns="http://www.w3.org/2000/svg" xmlns:xlink="http://www.w3.org/1999/xlink" xml:space="preserve" overflow="hidden"><defs><clipPath id="clip0"><rect x="253" y="143" width="329" height="213"/></clipPath></defs><g clip-path="url(#clip0)" transform="translate(-253 -143)"><g><path d="M465 273 419 273 419 266 465 266ZM465 253 419 253 419 246 465 246ZM465 233 419 233 419 225 465 225ZM512 212 419 212 419 205 512 205ZM512 192 419 192 419 185 512 185ZM558 172 419 172 419 164 558 164Z" fill="#002060"/></g><g><text font-family="Calibri,Calibri_MSFontService,Arial" font-weight="400" font-size="15" transform="translate(427.085 336)">0%</text></g><g><text font-family="Calibri,Calibri_MSFontService,Arial" font-weight="400" font-size="15" transform="translate(427.085 316)">0%</text></g><g><text font-family="Calibri,Calibri_MSFontService,Arial" font-weight="400" font-size="15" transform="translate(427.085 295)">0%</text></g><g><text font-family="Calibri,Calibri_MSFontService,Arial" font-weight="400" font-size="15" transform="translate(473.393 275)">25%</text></g><g><text font-family="Calibri,Calibri_MSFontService,Arial" font-weight="400" font-size="15" transform="translate(473.393 254)">25%</text></g><g><text font-family="Calibri,Calibri_MSFontService,Arial" font-weight="400" font-size="15" transform="translate(473.393 234)">25%</text></g><g><text font-family="Calibri,Calibri_MSFontService,Arial" font-weight="400" font-size="15" transform="translate(519.701 214)">50%</text></g><g><text font-family="Calibri,Calibri_MSFontService,Arial" font-weight="400" font-size="15" transform="translate(519.701 193)">50%</text></g><g><text font-family="Calibri,Calibri_MSFontService,Arial" font-weight="400" font-size="15" transform="translate(552.585 173)">75%</text></g><g><text font-family="Calibri,Calibri_MSFontService,Arial" font-weight="400" font-size="13" transform="translate(361.283 335)">Pucallpa</text></g><g><text font-family="Calibri,Calibri_MSFontService,Arial" font-weight="400" font-size="13" transform="translate(336.29 315)">Buenos Aires</text></g><g><text font-family="Calibri,Calibri_MSFontService,Arial" font-weight="400" font-size="13" transform="translate(326.077 294)">Playa Hermosa</text></g><g><text font-family="Calibri,Calibri_MSFontService,Arial" font-weight="400" font-size="13" transform="translate(314.043 274)">Puente la Juanita</text></g><g><text font-family="Calibri,Calibri_MSFontService,Arial" font-weight="400" font-size="13" transform="translate(290.037 254)">San José de Yanayacu</text></g><g><text font-family="Calibri,Calibri_MSFontService,Arial" font-weight="400" font-size="13" transform="translate(350.57 233)">Miraflores</text></g><g><text font-family="Calibri,Calibri_MSFontService,Arial" font-weight="400" font-size="13" transform="translate(290.056 213)">Codillo (Alto Paltaico)</text></g><g><text font-family="Calibri,Calibri_MSFontService,Arial" font-weight="400" font-size="13" transform="translate(292.003 192)">Unión de Corotoyacu</text></g><g><text font-family="Calibri,Calibri_MSFontService,Arial" font-weight="400" font-size="13" transform="translate(305.11 172)">San Juan de Shitari</text></g><g><text font-family="Calibri,Calibri_MSFontService,Arial" font-weight="400" font-size="13" transform="matrix(6.12323e-17 -1 1 6.12323e-17 273.395 281)">Elaboración</text></g></g></svg>