<svg width="481" height="330" xmlns="http://www.w3.org/2000/svg" xmlns:xlink="http://www.w3.org/1999/xlink" xml:space="preserve" overflow="hidden"><defs><clipPath id="clip0"><rect x="2648" y="591" width="481" height="330"/></clipPath></defs><g clip-path="url(#clip0)" transform="translate(-2648 -591)"><rect x="2648" y="591" width="481" height="330" fill="#FFFFFF"/><g><path d="M2908 795 2814 795 2814 783 2908 783ZM2908 762 2814 762 2814 750 2908 750ZM2908 728 2814 728 2814 716 2908 716ZM3002 695 2814 695 2814 683 3002 683ZM3002 661 2814 661 2814 650 3002 650ZM3096 628 2814 628 2814 616 3096 616Z" fill="#002060"/></g><g><text font-family="Calibri,Calibri_MSFontService,Arial" font-weight="400" font-size="15" transform="translate(2822.03 895)">0%</text></g><g><text font-family="Calibri,Calibri_MSFontService,Arial" font-weight="400" font-size="15" transform="translate(2822.03 861)">0%</text></g><g><text font-family="Calibri,Calibri_MSFontService,Arial" font-weight="400" font-size="15" transform="translate(2822.03 828)">0%</text></g><g><text font-family="Calibri,Calibri_MSFontService,Arial" font-weight="400" font-size="15" transform="translate(2915.9 794)">25%</text></g><g><text font-family="Calibri,Calibri_MSFontService,Arial" font-weight="400" font-size="15" transform="translate(2915.9 761)">25%</text></g><g><text font-family="Calibri,Calibri_MSFontService,Arial" font-weight="400" font-size="15" transform="translate(2915.9 727)">25%</text></g><g><text font-family="Calibri,Calibri_MSFontService,Arial" font-weight="400" font-size="15" transform="translate(3009.76 694)">50%</text></g><g><text font-family="Calibri,Calibri_MSFontService,Arial" font-weight="400" font-size="15" transform="translate(3009.76 661)">50%</text></g><g><text font-family="Calibri,Calibri_MSFontService,Arial" font-weight="400" font-size="15" transform="translate(3099.72 627)">75%</text></g><g><text font-family="Calibri,Calibri_MSFontService,Arial" font-weight="400" font-size="13" transform="translate(2756.23 894)">Pucallpa</text></g><g><text font-family="Calibri,Calibri_MSFontService,Arial" font-weight="400" font-size="13" transform="translate(2731.24 860)">Buenos Aires</text></g><g><text font-family="Calibri,Calibri_MSFontService,Arial" font-weight="400" font-size="13" transform="translate(2721.02 827)">Playa Hermosa</text></g><g><text font-family="Calibri,Calibri_MSFontService,Arial" font-weight="400" font-size="13" transform="translate(2708.99 793)">Puente la Juanita</text></g><g><text font-family="Calibri,Calibri_MSFontService,Arial" font-weight="400" font-size="13" transform="translate(2684.98 760)">San José de Yanayacu</text></g><g><text font-family="Calibri,Calibri_MSFontService,Arial" font-weight="400" font-size="13" transform="translate(2745.52 727)">Miraflores</text></g><g><text font-family="Calibri,Calibri_MSFontService,Arial" font-weight="400" font-size="13" transform="translate(2685 693)">Codillo (Alto Paltaico)</text></g><g><text font-family="Calibri,Calibri_MSFontService,Arial" font-weight="400" font-size="13" transform="translate(2686.95 660)">Unión de Corotoyacu</text></g><g><text font-family="Calibri,Calibri_MSFontService,Arial" font-weight="400" font-size="13" transform="translate(2700.06 626)">San Juan de Shitari</text></g><g><text font-family="Calibri,Calibri_MSFontService,Arial" font-weight="400" font-size="13" transform="matrix(6.12323e-17 -1 1 6.12323e-17 2668.34 788)">Elaboración</text></g></g></svg>