<svg width="997" height="536" xmlns="http://www.w3.org/2000/svg" xmlns:xlink="http://www.w3.org/1999/xlink" overflow="hidden"><defs><clipPath id="clip0"><rect x="20" y="149" width="997" height="536"/></clipPath><clipPath id="clip1"><rect x="21" y="149" width="473" height="535"/></clipPath><clipPath id="clip2"><rect x="21" y="149" width="473" height="535"/></clipPath><clipPath id="clip3"><rect x="21" y="149" width="473" height="535"/></clipPath><clipPath id="clip4"><rect x="21" y="149" width="473" height="535"/></clipPath><clipPath id="clip5"><rect x="497" y="149" width="519" height="535"/></clipPath><clipPath id="clip6"><rect x="497" y="149" width="519" height="535"/></clipPath><clipPath id="clip7"><rect x="497" y="149" width="519" height="535"/></clipPath><clipPath id="clip8"><rect x="497" y="149" width="519" height="535"/></clipPath></defs><g clip-path="url(#clip0)" transform="translate(-20 -149)"><g clip-path="url(#clip1)"><g clip-path="url(#clip2)"><g clip-path="url(#clip3)"><g clip-path="url(#clip4)"><path d="M1251.84 265.944 1724.84 265.944 1724.84 674.357 1251.84 674.357Z" stroke="#000000" stroke-width="1.30667" fill="#FFFFFF" transform="matrix(1 0 0 1.30995 -1230.84 -199.372)"/><path d="M1551.97 630.667 1521.58 630.667 1521.58 613.57 1551.97 613.57ZM1580.47 579.378 1521.58 579.378 1521.58 562.281 1580.47 562.281ZM1580.47 529.988 1521.58 529.988 1521.58 512.892 1580.47 512.892ZM1580.47 478.699 1521.58 478.699 1521.58 461.602 1580.47 461.602ZM1608.96 429.309 1521.58 429.309 1521.58 412.213 1608.96 412.213ZM1639.35 378.02 1521.58 378.02 1521.58 360.924 1639.35 360.924ZM1639.35 328.631 1521.58 328.631 1521.58 311.534 1639.35 311.534Z" stroke="#000000" stroke-width="1.30667" fill="#002060" transform="matrix(1 0 0 1.30995 -1230.84 -199.372)"/><text font-family="Calibri,Calibri_MSFontService,sans-serif" font-weight="400" font-size="13" transform="matrix(1.8996 0 0 2.48837 335.655 627)">25</text><text font-family="Calibri,Calibri_MSFontService,sans-serif" font-weight="400" font-size="13" transform="matrix(1.8996 0 0 2.48837 362.25 627)">%</text><text font-family="Calibri,Calibri_MSFontService,sans-serif" font-weight="400" font-size="13" transform="matrix(1.8996 0 0 2.48837 364.827 562)">50</text><text font-family="Calibri,Calibri_MSFontService,sans-serif" font-weight="400" font-size="13" transform="matrix(1.8996 0 0 2.48837 391.422 562)">%</text><text font-family="Calibri,Calibri_MSFontService,sans-serif" font-weight="400" font-size="13" transform="matrix(1.8996 0 0 2.48837 364.827 495)">50</text><text font-family="Calibri,Calibri_MSFontService,sans-serif" font-weight="400" font-size="13" transform="matrix(1.8996 0 0 2.48837 391.422 495)">%</text><text font-family="Calibri,Calibri_MSFontService,sans-serif" font-weight="400" font-size="13" transform="matrix(1.8996 0 0 2.48837 364.827 430)">50</text><text font-family="Calibri,Calibri_MSFontService,sans-serif" font-weight="400" font-size="13" transform="matrix(1.8996 0 0 2.48837 391.422 430)">%</text><text font-family="Calibri,Calibri_MSFontService,sans-serif" font-weight="400" font-size="13" transform="matrix(1.8996 0 0 2.48837 393.998 363)">75</text><text font-family="Calibri,Calibri_MSFontService,sans-serif" font-weight="400" font-size="13" transform="matrix(1.8996 0 0 2.48837 420.592 363)">%</text><text font-family="Calibri,Calibri_MSFontService,sans-serif" font-weight="400" font-size="13" transform="matrix(1.8996 0 0 2.48837 423.17 298)">100</text><text font-family="Calibri,Calibri_MSFontService,sans-serif" font-weight="400" font-size="13" transform="matrix(1.8996 0 0 2.48837 463.061 298)">%</text><text font-family="Calibri,Calibri_MSFontService,sans-serif" font-weight="400" font-size="13" transform="matrix(1.8996 0 0 2.48837 423.17 231)">100</text><text font-family="Calibri,Calibri_MSFontService,sans-serif" font-weight="400" font-size="13" transform="matrix(1.8996 0 0 2.48837 463.061 231)">%</text><text font-family="Calibri,Calibri_MSFontService,sans-serif" font-weight="400" font-size="13" transform="matrix(1.8996 0 0 2.48837 91.648 624)">Nueva Esperanza</text><text font-family="Calibri,Calibri_MSFontService,sans-serif" font-weight="400" font-size="13" transform="matrix(1.8996 0 0 2.48837 192.733 560)">Gossen</text><text font-family="Calibri,Calibri_MSFontService,sans-serif" font-weight="400" font-size="13" transform="matrix(1.8996 0 0 2.48837 164.708 492)">Cachiyacu</text><text font-family="Calibri,Calibri_MSFontService,sans-serif" font-weight="400" font-size="13" transform="matrix(1.8996 0 0 2.48837 160.035 428)">Río Blanco</text><text font-family="Calibri,Calibri_MSFontService,sans-serif" font-weight="400" font-size="13" transform="matrix(1.8996 0 0 2.48837 113.355 361)">San Juan Km</text><text font-family="Calibri,Calibri_MSFontService,sans-serif" font-weight="400" font-size="13" transform="matrix(1.8996 0 0 2.48837 242.527 361)">33</text><text font-family="Calibri,Calibri_MSFontService,sans-serif" font-weight="400" font-size="13" transform="matrix(1.8996 0 0 2.48837 108.91 296)">Montaña verde</text><text font-family="Calibri,Calibri_MSFontService,sans-serif" font-weight="400" font-size="13" transform="matrix(1.8996 0 0 2.48837 116.117 229)">Bajo Chimbote</text><text font-family="Calibri,Calibri_MSFontService,sans-serif" font-weight="400" font-size="13" transform="matrix(1.16317e-16 -2.48837 1.8996 1.52369e-16 60.0367 497)">Elaboración</text></g></g></g></g><g clip-path="url(#clip5)"><g clip-path="url(#clip6)"><g clip-path="url(#clip7)"><g clip-path="url(#clip8)"><path d="M3461.74 1278.54 3980.74 1278.54 3980.74 1647.2 3461.74 1647.2Z" stroke="#000000" stroke-width="1.3073" fill="#FFFFFF" transform="matrix(1 0 0 1.4512 -2964.74 -1706.43)"/><path d="M3917.99 1566.15 3699.67 1566.15 3699.67 1549.16 3917.99 1549.16Z" stroke="#000000" stroke-width="1.3073" fill="#002060" transform="matrix(1 0 0 1.4512 -2964.74 -1706.43)"/><path d="M0 0 0.00013725 330.748" stroke="#000000" stroke-width="1.3073" stroke-linejoin="round" stroke-miterlimit="10" fill="none" fill-rule="evenodd" transform="matrix(1 0 0 -1.4512 734.276 656.491)"/><path d="M3508.15 1628.25 3699.02 1628.25M3508.15 1534.12 3699.02 1534.12M3508.15 1297.5 3699.02 1297.5" stroke="#000000" stroke-width="1.3073" stroke-linejoin="round" stroke-miterlimit="10" fill="none" transform="matrix(1 0 0 1.4512 -2964.74 -1706.43)"/><path d="M3470.24 1628.25 3508.15 1628.25M3470.24 1534.12 3508.15 1534.12M3470.24 1297.5 3508.15 1297.5" stroke="#000000" stroke-width="1.3073" stroke-linejoin="round" stroke-miterlimit="10" fill="none" transform="matrix(1 0 0 1.4512 -2964.74 -1706.43)"/><text font-family="Calibri,Calibri_MSFontService,sans-serif" font-weight="400" font-size="13" transform="matrix(1.3073 0 0 1.89716 744.878 633)">0</text><text font-family="Calibri,Calibri_MSFontService,sans-serif" font-weight="400" font-size="13" transform="matrix(1.3073 0 0 1.89716 754.029 633)">%</text><text font-family="Calibri,Calibri_MSFontService,sans-serif" font-weight="400" font-size="13" transform="matrix(1.3073 0 0 1.89716 963.93 563)">25</text><text font-family="Calibri,Calibri_MSFontService,sans-serif" font-weight="400" font-size="13" transform="matrix(1.3073 0 0 1.89716 982.232 563)">%</text><text font-family="Calibri,Calibri_MSFontService,sans-serif" font-weight="400" font-size="13" transform="matrix(1.3073 0 0 1.89716 744.878 494)">0</text><text font-family="Calibri,Calibri_MSFontService,sans-serif" font-weight="400" font-size="13" transform="matrix(1.3073 0 0 1.89716 754.029 494)">%</text><text font-family="Calibri,Calibri_MSFontService,sans-serif" font-weight="400" font-size="13" transform="matrix(1.3073 0 0 1.89716 744.878 426)">0</text><text font-family="Calibri,Calibri_MSFontService,sans-serif" font-weight="400" font-size="13" transform="matrix(1.3073 0 0 1.89716 754.029 426)">%</text><text font-family="Calibri,Calibri_MSFontService,sans-serif" font-weight="400" font-size="13" transform="matrix(1.3073 0 0 1.89716 744.878 358)">0</text><text font-family="Calibri,Calibri_MSFontService,sans-serif" font-weight="400" font-size="13" transform="matrix(1.3073 0 0 1.89716 754.029 358)">%</text><text font-family="Calibri,Calibri_MSFontService,sans-serif" font-weight="400" font-size="13" transform="matrix(1.3073 0 0 1.89716 744.878 289)">0</text><text font-family="Calibri,Calibri_MSFontService,sans-serif" font-weight="400" font-size="13" transform="matrix(1.3073 0 0 1.89716 754.029 289)">%</text><text font-family="Calibri,Calibri_MSFontService,sans-serif" font-weight="400" font-size="13" transform="matrix(1.3073 0 0 1.89716 744.878 221)">0</text><text font-family="Calibri,Calibri_MSFontService,sans-serif" font-weight="400" font-size="13" transform="matrix(1.3073 0 0 1.89716 754.029 221)">%</text><text font-family="Calibri,Calibri_MSFontService,sans-serif" font-weight="400" font-size="13" transform="matrix(1.3073 0 0 1.89716 632.28 631)">San Lorenzo</text><text font-family="Calibri,Calibri_MSFontService,sans-serif" font-weight="400" font-size="13" transform="matrix(1.3073 0 0 1.89716 622.815 563)">Manco Capac</text><text font-family="Calibri,Calibri_MSFontService,sans-serif" font-weight="400" font-size="13" transform="matrix(1.3073 0 0 1.89716 659.668 492)">Libertad</text><text font-family="Calibri,Calibri_MSFontService,sans-serif" font-weight="400" font-size="13" transform="matrix(1.3073 0 0 1.89716 669.264 424)">Isolaya</text><text font-family="Calibri,Calibri_MSFontService,sans-serif" font-weight="400" font-size="13" transform="matrix(1.3073 0 0 1.89716 623.26 356)">Nuevo Egipto</text><text font-family="Calibri,Calibri_MSFontService,sans-serif" font-weight="400" font-size="13" transform="matrix(1.3073 0 0 1.89716 642.346 287)">La Cumbre</text><text font-family="Calibri,Calibri_MSFontService,sans-serif" font-weight="400" font-size="13" transform="matrix(1.3073 0 0 1.89716 545.344 219)">Santa Rosa de Pirococha</text><text font-family="Calibri,Calibri_MSFontService,sans-serif" font-weight="400" font-size="13" transform="matrix(8.00493e-17 -1.89716 1.3073 1.16168e-16 523.591 656)">Actualización</text><text font-family="Calibri,Calibri_MSFontService,sans-serif" font-weight="400" font-size="13" transform="matrix(8.00493e-17 -1.89716 1.3073 1.16168e-16 523.591 409)">Elaboración</text></g></g></g></g></g></svg>