<svg width="617" height="700" xmlns="http://www.w3.org/2000/svg" xmlns:xlink="http://www.w3.org/1999/xlink" xml:space="preserve" overflow="hidden"><defs><clipPath id="clip0"><rect x="566" y="26" width="617" height="700"/></clipPath></defs><g clip-path="url(#clip0)" transform="translate(-566 -26)"><rect x="566" y="26" width="616" height="699" fill="#FFFFFF"/><g><path d="M1085 681 769 681 769 666 1085 666ZM1013 626 769 626 769 612 1013 612ZM936 572 769 572 769 558 936 558ZM955 517 769 517 769 503 955 503ZM1054 463 769 463 769 449 1054 449ZM999 409 769 409 769 394 999 394ZM957 354 769 354 769 340 957 340ZM1000 300 769 300 769 286 1000 286ZM912 245 769 245 769 231 912 231ZM1018 191 769 191 769 177 1018 177ZM967 137 769 137 769 122 967 122ZM1077 82 769 82 769 68 1077 68Z" fill="#4472C4"/></g><g><path d="M788 666 769 666 769 652 788 652ZM782 612 769 612 769 598 782 598ZM776 558 769 558 769 543 776 543ZM776 503 769 503 769 489 776 489ZM801 449 769 449 769 434 801 434ZM814 394 769 394 769 380 814 380ZM795 340 769 340 769 326 795 326ZM776 286 769 286 769 271 776 271ZM788 231 769 231 769 217 788 217ZM821 177 769 177 769 162 821 162ZM801 122 769 122 769 108 801 108ZM776 68 769 68 769 54 776 54Z" fill="#A5A5A5"/></g><g><path d="M769.5 693.5 1153.5 693.5" stroke="#000000" stroke-linejoin="round" stroke-miterlimit="10" fill="none" fill-rule="evenodd"/></g><g><path d="M0 0 0.000104987 653" stroke="#000000" stroke-linejoin="round" stroke-miterlimit="10" fill="none" fill-rule="evenodd" transform="matrix(1 0 0 -1 769.5 693.5)"/></g><g><path d="M618.5 693.5 769.5 693.5M618.5 258.5 769.5 258.5M618.5 149.5 769.5 149.5M618.5 95.5001 769.5 95.5001M618.5 40.5001 769.5 40.5001" stroke="#000000" stroke-linejoin="round" stroke-miterlimit="10" fill="none"/></g><g><path d="M572.5 693.5 618.5 693.5M572.5 258.5 618.5 258.5M572.5 149.5 618.5 149.5M572.5 95.5001 618.5 95.5001M572.5 40.5001 618.5 40.5001" stroke="#000000" stroke-linejoin="round" stroke-miterlimit="10" fill="none"/></g><g><text font-family="Calibri,Calibri_MSFontService,Arial" font-weight="400" font-size="12" transform="translate(1093.32 677)">49.33</text></g><g><text font-family="Calibri,Calibri_MSFontService,Arial" font-weight="400" font-size="12" transform="translate(1020.72 623)">38.00</text></g><g><text font-family="Calibri,Calibri_MSFontService,Arial" font-weight="400" font-size="12" transform="translate(943.839 568)">26.00</text></g><g><text font-family="Calibri,Calibri_MSFontService,Arial" font-weight="400" font-size="12" transform="translate(963.058 514)">29.00</text></g><g><text font-family="Calibri,Calibri_MSFontService,Arial" font-weight="400" font-size="12" transform="translate(1061.72 460)">44.40</text></g><g><text font-family="Calibri,Calibri_MSFontService,Arial" font-weight="400" font-size="12" transform="translate(1006.99 405)">35.86</text></g><g><text font-family="Calibri,Calibri_MSFontService,Arial" font-weight="400" font-size="12" transform="translate(964.66 351)">29.25</text></g><g><text font-family="Calibri,Calibri_MSFontService,Arial" font-weight="400" font-size="12" transform="translate(1007.9 296)">36.00</text></g><g><text font-family="Calibri,Calibri_MSFontService,Arial" font-weight="400" font-size="12" transform="translate(920.348 242)">22.33</text></g><g><text font-family="Calibri,Calibri_MSFontService,Arial" font-weight="400" font-size="12" transform="translate(1025.52 187)">38.75</text></g><g><text font-family="Calibri,Calibri_MSFontService,Arial" font-weight="400" font-size="12" transform="translate(974.59 133)">30.80</text></g><g><text font-family="Calibri,Calibri_MSFontService,Arial" font-weight="400" font-size="12" transform="translate(1084.78 79)">48.00</text></g><g><text font-family="Calibri,Calibri_MSFontService,Arial" font-weight="400" font-size="12" transform="translate(796.489 663)">3.00</text></g><g><text font-family="Calibri,Calibri_MSFontService,Arial" font-weight="400" font-size="12" transform="translate(790.083 609)">2.00</text></g><g><text font-family="Calibri,Calibri_MSFontService,Arial" font-weight="400" font-size="12" transform="translate(783.676 554)">1.00</text></g><g><text font-family="Calibri,Calibri_MSFontService,Arial" font-weight="400" font-size="12" transform="translate(783.676 500)">1.00</text></g><g><text font-family="Calibri,Calibri_MSFontService,Arial" font-weight="400" font-size="12" transform="translate(809.302 445)">5.00</text></g><g><text font-family="Calibri,Calibri_MSFontService,Arial" font-weight="400" font-size="12" transform="translate(822.115 391)">7.00</text></g><g><text font-family="Calibri,Calibri_MSFontService,Arial" font-weight="400" font-size="12" transform="translate(802.896 336)">4.00</text></g><g><text font-family="Calibri,Calibri_MSFontService,Arial" font-weight="400" font-size="12" transform="translate(783.676 282)">1.00</text></g><g><text font-family="Calibri,Calibri_MSFontService,Arial" font-weight="400" font-size="12" transform="translate(796.489 228)">3.00</text></g><g><text font-family="Calibri,Calibri_MSFontService,Arial" font-weight="400" font-size="12" transform="translate(828.522 173)">8.00</text></g><g><text font-family="Calibri,Calibri_MSFontService,Arial" font-weight="400" font-size="12" transform="translate(809.302 119)">5.00</text></g><g><text font-family="Calibri,Calibri_MSFontService,Arial" font-weight="400" font-size="12" transform="translate(783.676 64)">1.00</text></g><g><text font-family="Calibri,Calibri_MSFontService,Arial" font-weight="400" font-size="12" transform="translate(758.637 712)">0.00</text></g><g><text font-family="Calibri,Calibri_MSFontService,Arial" font-weight="400" font-size="12" transform="translate(819.662 712)">10.00</text></g><g><text font-family="Calibri,Calibri_MSFontService,Arial" font-weight="400" font-size="12" transform="translate(883.727 712)">20.00</text></g><g><text font-family="Calibri,Calibri_MSFontService,Arial" font-weight="400" font-size="12" transform="translate(947.792 712)">30.00</text></g><g><text font-family="Calibri,Calibri_MSFontService,Arial" font-weight="400" font-size="12" transform="translate(1011.86 712)">40.00</text></g><g><text font-family="Calibri,Calibri_MSFontService,Arial" font-weight="400" font-size="12" transform="translate(1075.92 712)">50.00</text></g><g><text font-family="Calibri,Calibri_MSFontService,Arial" font-weight="400" font-size="12" transform="translate(1139.99 712)">60.00</text></g><g><text font-family="Calibri,Calibri_MSFontService,Arial" font-weight="400" font-size="13" transform="translate(619.581 670)">Fernando Belaunde Terry</text></g><g><text font-family="Calibri,Calibri_MSFontService,Arial" font-weight="400" font-size="13" transform="translate(707.328 616)">Inahuaya</text></g><g><text font-family="Calibri,Calibri_MSFontService,Arial" font-weight="400" font-size="13" transform="translate(710.895 562)">Orellana</text></g><g><text font-family="Calibri,Calibri_MSFontService,Arial" font-weight="400" font-size="13" transform="translate(707.882 507)">Orellana</text></g><g><text font-family="Calibri,Calibri_MSFontService,Arial" font-weight="400" font-size="13" transform="translate(664.682 453)">Pampa Hermosa</text></g><g><text font-family="Calibri,Calibri_MSFontService,Arial" font-weight="400" font-size="13" transform="translate(687.622 398)">Shamboyacu</text></g><g><text font-family="Calibri,Calibri_MSFontService,Arial" font-weight="400" font-size="13" transform="translate(684.608 344)">Shamboyacu</text></g><g><text font-family="Calibri,Calibri_MSFontService,Arial" font-weight="400" font-size="13" transform="translate(704.428 290)">Tarapoto</text></g><g><text font-family="Calibri,Calibri_MSFontService,Arial" font-weight="400" font-size="13" transform="translate(682.908 235)">CN Chambira</text></g><g><text font-family="Calibri,Calibri_MSFontService,Arial" font-weight="400" font-size="13" transform="translate(682.548 181)">Simón Bolivar</text></g><g><text font-family="Calibri,Calibri_MSFontService,Arial" font-weight="400" font-size="13" transform="translate(662.155 126)">CN Manco Capac</text></g><g><text font-family="Calibri,Calibri_MSFontService,Arial" font-weight="400" font-size="13" transform="translate(712.088 72)">Libertad</text></g><g><text font-family="Calibri,Calibri_MSFontService,Arial" font-weight="400" font-size="13" transform="matrix(6.12323e-17 -1 1 6.12323e-17 602.94 518)">Centro Poblado</text></g><g><text font-family="Calibri,Calibri_MSFontService,Arial" font-weight="400" font-size="13" transform="matrix(6.12323e-17 -1 1 6.12323e-17 602.94 223)">Kichwa</text></g><g><text font-family="Calibri,Calibri_MSFontService,Arial" font-weight="400" font-size="13" transform="matrix(6.12323e-17 -1 1 6.12323e-17 586.667 144)">Shipibo-</text></g><g><text font-family="Calibri,Calibri_MSFontService,Arial" font-weight="400" font-size="13" transform="matrix(6.12323e-17 -1 1 6.12323e-17 602.94 141)">konibo</text></g><g><text font-family="Calibri,Calibri_MSFontService,Arial" font-weight="400" font-size="13" transform="matrix(6.12323e-17 -1 1 6.12323e-17 602.94 79)">Yine</text></g><rect x="566.5" y="26.5001" width="616" height="699" stroke="#D9D9D9" stroke-linejoin="round" stroke-miterlimit="10" fill="none"/></g></svg>