<svg width="749" height="574" xmlns="http://www.w3.org/2000/svg" xmlns:xlink="http://www.w3.org/1999/xlink" xml:space="preserve" overflow="hidden"><defs><clipPath id="clip0"><rect x="479" y="42" width="749" height="574"/></clipPath></defs><g clip-path="url(#clip0)" transform="translate(-479 -42)"><rect x="479" y="42" width="748" height="573" fill="#FFFFFF"/><g><rect x="677.5" y="269.5" width="199" height="9" stroke="#BDD7EE" stroke-linejoin="round" stroke-miterlimit="10" fill="#9DC3E6"/></g><g><rect x="677.5" y="229.5" width="265" height="10" stroke="#BDD7EE" stroke-linejoin="round" stroke-miterlimit="10" fill="#9DC3E6"/></g><g><rect x="677.5" y="190.5" width="133" height="10" stroke="#9DC3E6" stroke-linejoin="round" stroke-miterlimit="10" fill="#9DC3E6"/></g><g><rect x="677.5" y="151.5" width="133" height="9" stroke="#9DC3E6" stroke-linejoin="round" stroke-miterlimit="10" fill="#9DC3E6"/></g><g><rect x="677.5" y="111.5" width="332" height="10" stroke="#FFD966" stroke-linejoin="round" stroke-miterlimit="10" fill="#FFD966"/></g><g><rect x="677.5" y="72.5001" width="66" height="10" stroke="#C5E0B4" stroke-linejoin="round" stroke-miterlimit="10" fill="#C5E0B4"/></g><g><path d="M810.5 554.5 677.5 554.5 677.5 544.5 810.5 544.5ZM743.5 515.5 677.5 515.5 677.5 505.5 743.5 505.5ZM1075.5 475.5 677.5 475.5 677.5 465.5 1075.5 465.5ZM1141.5 436.5 677.5 436.5 677.5 426.5 1141.5 426.5ZM810.5 397.5 677.5 397.5 677.5 387.5 810.5 387.5ZM1009.5 357.5 677.5 357.5 677.5 347.5 1009.5 347.5ZM743.5 318.5 677.5 318.5 677.5 308.5 743.5 308.5Z" stroke="#DBDBDB" stroke-linejoin="round" stroke-miterlimit="10" fill="#7C7C7C"/></g><g><path d="M677.5 569.5 1208.5 569.5" stroke="#000000" stroke-linejoin="round" stroke-miterlimit="10" fill="none" fill-rule="evenodd"/></g><g><path d="M677.5 569.5 677.5 573.5M743.5 569.5 743.5 573.5M810.5 569.5 810.5 573.5M876.5 569.5 876.5 573.5M942.5 569.5 942.5 573.5M1009.5 569.5 1009.5 573.5M1075.5 569.5 1075.5 573.5M1141.5 569.5 1141.5 573.5M1208.5 569.5 1208.5 573.5" stroke="#000000" stroke-linejoin="round" stroke-miterlimit="10" fill="none"/></g><g><path d="M0 0 0.000104987 512" stroke="#000000" stroke-linejoin="round" stroke-miterlimit="10" fill="none" fill-rule="evenodd" transform="matrix(1 0 0 -1 677.5 569.5)"/></g><g><path d="M568.5 569.5 677.5 569.5M568.5 293.5 677.5 293.5M568.5 136.5 677.5 136.5M568.5 96.5001 677.5 96.5001M568.5 57.5001 677.5 57.5001" stroke="#000000" stroke-linejoin="round" stroke-miterlimit="10" fill="none"/></g><g><path d="M527.5 569.5 568.5 569.5M527.5 293.5 568.5 293.5M527.5 136.5 568.5 136.5M527.5 96.5001 568.5 96.5001M527.5 57.5001 568.5 57.5001" stroke="#000000" stroke-linejoin="round" stroke-miterlimit="10" fill="none"/></g><g><text font-family="Calibri,Calibri_MSFontService,Arial" font-weight="400" font-size="12" transform="translate(818.034 553)">2</text></g><g><text font-family="Calibri,Calibri_MSFontService,Arial" font-weight="400" font-size="12" transform="translate(751.698 514)">1</text></g><g><text font-family="Calibri,Calibri_MSFontService,Arial" font-weight="400" font-size="12" transform="translate(1083.38 475)">6</text></g><g><text font-family="Calibri,Calibri_MSFontService,Arial" font-weight="400" font-size="12" transform="translate(1149.72 435)">7</text></g><g><text font-family="Calibri,Calibri_MSFontService,Arial" font-weight="400" font-size="12" transform="translate(818.034 396)">2</text></g><g><text font-family="Calibri,Calibri_MSFontService,Arial" font-weight="400" font-size="12" transform="translate(1017.04 356)">5</text></g><g><text font-family="Calibri,Calibri_MSFontService,Arial" font-weight="400" font-size="12" transform="translate(751.698 317)">1</text></g><g><text font-family="Calibri,Calibri_MSFontService,Arial" font-weight="400" font-size="12" transform="translate(884.37 278)">3</text></g><g><text font-family="Calibri,Calibri_MSFontService,Arial" font-weight="400" font-size="12" transform="translate(950.706 238)">4</text></g><g><text font-family="Calibri,Calibri_MSFontService,Arial" font-weight="400" font-size="12" transform="translate(818.034 199)">2</text></g><g><text font-family="Calibri,Calibri_MSFontService,Arial" font-weight="400" font-size="12" transform="translate(818.034 160)">2</text></g><g><text font-family="Calibri,Calibri_MSFontService,Arial" font-weight="400" font-size="12" transform="translate(1017.04 120)">5</text></g><g><text font-family="Calibri,Calibri_MSFontService,Arial" font-weight="400" font-size="12" transform="translate(751.698 81)">1</text></g><g><text font-family="Calibri,Calibri_MSFontService,Arial" font-weight="400" font-size="12" transform="translate(674.322 588)">0</text></g><g><text font-family="Calibri,Calibri_MSFontService,Arial" font-weight="400" font-size="12" transform="translate(740.658 588)">1</text></g><g><text font-family="Calibri,Calibri_MSFontService,Arial" font-weight="400" font-size="12" transform="translate(806.994 588)">2</text></g><g><text font-family="Calibri,Calibri_MSFontService,Arial" font-weight="400" font-size="12" transform="translate(873.33 588)">3</text></g><g><text font-family="Calibri,Calibri_MSFontService,Arial" font-weight="400" font-size="12" transform="translate(939.666 588)">4</text></g><g><text font-family="Calibri,Calibri_MSFontService,Arial" font-weight="400" font-size="12" transform="translate(1006 588)">5</text></g><g><text font-family="Calibri,Calibri_MSFontService,Arial" font-weight="400" font-size="12" transform="translate(1072.34 588)">6</text></g><g><text font-family="Calibri,Calibri_MSFontService,Arial" font-weight="400" font-size="12" transform="translate(1138.68 588)">7</text></g><g><text font-family="Calibri,Calibri_MSFontService,Arial" font-weight="400" font-size="12" transform="translate(1205.01 588)">8</text></g><g><text font-family="Calibri,Calibri_MSFontService,Arial" font-weight="400" font-size="12" transform="translate(634.063 553)">Cusha</text></g><g><text font-family="Calibri,Calibri_MSFontService,Arial" font-weight="400" font-size="12" transform="translate(629.583 513)">Ipururo</text></g><g><text font-family="Calibri,Calibri_MSFontService,Arial" font-weight="400" font-size="12" transform="translate(614.303 474)">Ipururo ZA</text></g><g><text font-family="Calibri,Calibri_MSFontService,Arial" font-weight="400" font-size="12" transform="translate(594.609 435)">Río Ushpayacu</text></g><g><text font-family="Calibri,Calibri_MSFontService,Arial" font-weight="400" font-size="12" transform="translate(615.796 395)">Rumiyacu</text></g><g><text font-family="Calibri,Calibri_MSFontService,Arial" font-weight="400" font-size="12" transform="translate(598.009 356)">Sector Chural</text></g><g><text font-family="Calibri,Calibri_MSFontService,Arial" font-weight="400" font-size="12" transform="translate(639.289 316)">Topa</text></g><g><text font-family="Calibri,Calibri_MSFontService,Arial" font-weight="400" font-size="12" transform="translate(569.836 277)">Caserio Huascayacu</text></g><g><text font-family="Calibri,Calibri_MSFontService,Arial" font-weight="400" font-size="12" transform="translate(593.816 238)">Pedro Satalaya</text></g><g><text font-family="Calibri,Calibri_MSFontService,Arial" font-weight="400" font-size="12" transform="translate(620.343 198)">Pucayacu</text></g><g><text font-family="Calibri,Calibri_MSFontService,Arial" font-weight="400" font-size="12" transform="translate(590.322 159)">Río Huascayacu</text></g><g><text font-family="Calibri,Calibri_MSFontService,Arial" font-weight="400" font-size="12" transform="translate(575.583 120)">Quebrada Chuinia</text></g><g><text font-family="Calibri,Calibri_MSFontService,Arial" font-weight="400" font-size="12" transform="translate(635.923 80)">Rama</text></g><g><text font-family="Calibri,Calibri_MSFontService,Arial" font-weight="400" font-size="12" transform="matrix(6.12323e-17 -1 1 6.12323e-17 554.057 469)">Centro Poblado</text></g><g><text font-family="Calibri,Calibri_MSFontService,Arial" font-weight="400" font-size="12" transform="matrix(6.12323e-17 -1 1 6.12323e-17 554.057 232)">Kichwa</text></g><g><text font-family="Calibri,Calibri_MSFontService,Arial" font-weight="400" font-size="12" transform="matrix(6.12323e-17 -1 1 6.12323e-17 539.41 135)">Shipibo</text></g><g><text font-family="Calibri,Calibri_MSFontService,Arial" font-weight="400" font-size="12" transform="matrix(6.12323e-17 -1 1 6.12323e-17 554.057 135)">-konibo</text></g><g><text font-family="Calibri,Calibri_MSFontService,Arial" font-weight="400" font-size="12" transform="matrix(6.12323e-17 -1 1 6.12323e-17 554.057 88)">Yine</text></g><g><text font-family="Calibri,Calibri_MSFontService,Arial" font-weight="400" font-size="13" transform="translate(910.866 609)">n</text></g><g><text font-family="Calibri,Calibri_MSFontService,Arial" font-weight="400" font-size="13" transform="translate(917.873 609)">°</text></g><g><text font-family="Calibri,Calibri_MSFontService,Arial" font-weight="400" font-size="13" transform="translate(925.406 609)">personas</text></g><g><text font-family="Calibri,Calibri_MSFontService,Arial" font-weight="400" font-size="13" transform="matrix(6.12323e-17 -1 1 6.12323e-17 522.137 438)">Localidades de destino, según tipo comunidad</text></g><rect x="479.5" y="42.5001" width="748" height="573" stroke="#D9D9D9" stroke-linejoin="round" stroke-miterlimit="10" fill="none"/></g></svg>