<svg width="617" height="700" xmlns="http://www.w3.org/2000/svg" xmlns:xlink="http://www.w3.org/1999/xlink" xml:space="preserve" overflow="hidden"><defs><clipPath id="clip0"><rect x="566" y="26" width="617" height="700"/></clipPath></defs><g clip-path="url(#clip0)" transform="translate(-566 -26)"><rect x="566" y="26" width="616" height="699" fill="#FFFFFF"/><g><path d="M1085 678 769 678 769 661 1085 661ZM1013 613 769 613 769 596 1013 596ZM945 547 769 547 769 530 945 530ZM1054 482 769 482 769 465 1054 465ZM984 417 769 417 769 400 984 400ZM1000 352 769 352 769 334 1000 334ZM912 286 769 286 769 269 912 269ZM1018 221 769 221 769 204 1018 204ZM967 156 769 156 769 139 967 139ZM1077 90 769 90 769 73 1077 73Z" fill="#4472C4"/></g><g><path d="M788 661 769 661 769 644 788 644ZM782 596 769 596 769 579 782 579ZM782 530 769 530 769 513 782 513ZM801 465 769 465 769 448 801 448ZM840 400 769 400 769 383 840 383ZM776 334 769 334 769 317 776 317ZM788 269 769 269 769 252 788 252ZM821 204 769 204 769 187 821 187ZM801 139 769 139 769 122 801 122ZM776 73 769 73 769 56 776 56Z" fill="#A5A5A5"/></g><g><path d="M769.5 693.5 1153.5 693.5" stroke="#000000" stroke-linejoin="round" stroke-miterlimit="10" fill="none" fill-rule="evenodd"/></g><g><path d="M0 0 0.000104987 653" stroke="#000000" stroke-linejoin="round" stroke-miterlimit="10" fill="none" fill-rule="evenodd" transform="matrix(1 0 0 -1 769.5 693.5)"/></g><g><path d="M618.5 693.5 769.5 693.5M618.5 301.5 769.5 301.5M618.5 171.5 769.5 171.5M618.5 105.5 769.5 105.5M618.5 40.5001 769.5 40.5001" stroke="#000000" stroke-linejoin="round" stroke-miterlimit="10" fill="none"/></g><g><path d="M572.5 693.5 618.5 693.5M572.5 301.5 618.5 301.5M572.5 171.5 618.5 171.5M572.5 105.5 618.5 105.5M572.5 40.5001 618.5 40.5001" stroke="#000000" stroke-linejoin="round" stroke-miterlimit="10" fill="none"/></g><g><text font-family="Calibri,Calibri_MSFontService,Arial" font-weight="400" font-size="12" transform="translate(1093.32 673)">49.33</text></g><g><text font-family="Calibri,Calibri_MSFontService,Arial" font-weight="400" font-size="12" transform="translate(1020.72 608)">38.00</text></g><g><text font-family="Calibri,Calibri_MSFontService,Arial" font-weight="400" font-size="12" transform="translate(953.449 543)">27.50</text></g><g><text font-family="Calibri,Calibri_MSFontService,Arial" font-weight="400" font-size="12" transform="translate(1061.72 477)">44.40</text></g><g><text font-family="Calibri,Calibri_MSFontService,Arial" font-weight="400" font-size="12" transform="translate(991.597 412)">33.45</text></g><g><text font-family="Calibri,Calibri_MSFontService,Arial" font-weight="400" font-size="12" transform="translate(1007.9 347)">36.00</text></g><g><text font-family="Calibri,Calibri_MSFontService,Arial" font-weight="400" font-size="12" transform="translate(920.348 281)">22.33</text></g><g><text font-family="Calibri,Calibri_MSFontService,Arial" font-weight="400" font-size="12" transform="translate(1025.52 216)">38.75</text></g><g><text font-family="Calibri,Calibri_MSFontService,Arial" font-weight="400" font-size="12" transform="translate(974.59 151)">30.80</text></g><g><text font-family="Calibri,Calibri_MSFontService,Arial" font-weight="400" font-size="12" transform="translate(1084.78 86)">48.00</text></g><g><text font-family="Calibri,Calibri_MSFontService,Arial" font-weight="400" font-size="12" transform="translate(796.489 656)">3.00</text></g><g><text font-family="Calibri,Calibri_MSFontService,Arial" font-weight="400" font-size="12" transform="translate(790.083 591)">2.00</text></g><g><text font-family="Calibri,Calibri_MSFontService,Arial" font-weight="400" font-size="12" transform="translate(790.083 525)">2.00</text></g><g><text font-family="Calibri,Calibri_MSFontService,Arial" font-weight="400" font-size="12" transform="translate(809.302 460)">5.00</text></g><g><text font-family="Calibri,Calibri_MSFontService,Arial" font-weight="400" font-size="12" transform="translate(847.741 395)">11.00</text></g><g><text font-family="Calibri,Calibri_MSFontService,Arial" font-weight="400" font-size="12" transform="translate(783.676 330)">1.00</text></g><g><text font-family="Calibri,Calibri_MSFontService,Arial" font-weight="400" font-size="12" transform="translate(796.489 264)">3.00</text></g><g><text font-family="Calibri,Calibri_MSFontService,Arial" font-weight="400" font-size="12" transform="translate(828.522 199)">8.00</text></g><g><text font-family="Calibri,Calibri_MSFontService,Arial" font-weight="400" font-size="12" transform="translate(809.302 134)">5.00</text></g><g><text font-family="Calibri,Calibri_MSFontService,Arial" font-weight="400" font-size="12" transform="translate(783.676 68)">1.00</text></g><g><text font-family="Calibri,Calibri_MSFontService,Arial" font-weight="400" font-size="12" transform="translate(758.637 712)">0.00</text></g><g><text font-family="Calibri,Calibri_MSFontService,Arial" font-weight="400" font-size="12" transform="translate(819.662 712)">10.00</text></g><g><text font-family="Calibri,Calibri_MSFontService,Arial" font-weight="400" font-size="12" transform="translate(883.727 712)">20.00</text></g><g><text font-family="Calibri,Calibri_MSFontService,Arial" font-weight="400" font-size="12" transform="translate(947.792 712)">30.00</text></g><g><text font-family="Calibri,Calibri_MSFontService,Arial" font-weight="400" font-size="12" transform="translate(1011.86 712)">40.00</text></g><g><text font-family="Calibri,Calibri_MSFontService,Arial" font-weight="400" font-size="12" transform="translate(1075.92 712)">50.00</text></g><g><text font-family="Calibri,Calibri_MSFontService,Arial" font-weight="400" font-size="12" transform="translate(1139.99 712)">60.00</text></g><g><text font-family="Calibri,Calibri_MSFontService,Arial" font-weight="400" font-size="13" transform="translate(619.581 665)">Fernando Belaunde Terry</text></g><g><text font-family="Calibri,Calibri_MSFontService,Arial" font-weight="400" font-size="13" transform="translate(707.328 600)">Inahuaya</text></g><g><text font-family="Calibri,Calibri_MSFontService,Arial" font-weight="400" font-size="13" transform="translate(710.895 534)">Orellana</text></g><g><text font-family="Calibri,Calibri_MSFontService,Arial" font-weight="400" font-size="13" transform="translate(664.682 469)">Pampa Hermosa</text></g><g><text font-family="Calibri,Calibri_MSFontService,Arial" font-weight="400" font-size="13" transform="translate(687.622 404)">Shamboyacu</text></g><g><text font-family="Calibri,Calibri_MSFontService,Arial" font-weight="400" font-size="13" transform="translate(704.428 339)">Tarapoto</text></g><g><text font-family="Calibri,Calibri_MSFontService,Arial" font-weight="400" font-size="13" transform="translate(682.908 273)">CN Chambira</text></g><g><text font-family="Calibri,Calibri_MSFontService,Arial" font-weight="400" font-size="13" transform="translate(682.548 208)">Simón Bolivar</text></g><g><text font-family="Calibri,Calibri_MSFontService,Arial" font-weight="400" font-size="13" transform="translate(662.155 143)">CN Manco Capac</text></g><g><text font-family="Calibri,Calibri_MSFontService,Arial" font-weight="400" font-size="13" transform="translate(712.088 77)">Libertad</text></g><g><text font-family="Calibri,Calibri_MSFontService,Arial" font-weight="400" font-size="13" transform="matrix(6.12323e-17 -1 1 6.12323e-17 602.94 540)">Centro Poblado</text></g><g><text font-family="Calibri,Calibri_MSFontService,Arial" font-weight="400" font-size="13" transform="matrix(6.12323e-17 -1 1 6.12323e-17 602.94 256)">Kichwa</text></g><g><text font-family="Calibri,Calibri_MSFontService,Arial" font-weight="400" font-size="13" transform="matrix(6.12323e-17 -1 1 6.12323e-17 586.667 161)">Shipibo-</text></g><g><text font-family="Calibri,Calibri_MSFontService,Arial" font-weight="400" font-size="13" transform="matrix(6.12323e-17 -1 1 6.12323e-17 602.94 157)">konibo</text></g><g><text font-family="Calibri,Calibri_MSFontService,Arial" font-weight="400" font-size="13" transform="matrix(6.12323e-17 -1 1 6.12323e-17 602.94 85)">Yine</text></g><rect x="566.5" y="26.5001" width="616" height="699" stroke="#D9D9D9" stroke-linejoin="round" stroke-miterlimit="10" fill="none"/></g></svg>