<svg width="700" height="574" xmlns="http://www.w3.org/2000/svg" xmlns:xlink="http://www.w3.org/1999/xlink" xml:space="preserve" overflow="hidden"><defs><clipPath id="clip0"><rect x="479" y="42" width="700" height="574"/></clipPath></defs><g clip-path="url(#clip0)" transform="translate(-479 -42)"><rect x="479" y="42" width="699" height="573" fill="#FFFFFF"/><g><path d="M788.5 554.5 664.5 554.5 664.5 544.5 788.5 544.5ZM726.5 515.5 664.5 515.5 664.5 505.5 726.5 505.5ZM1036.5 475.5 664.5 475.5 664.5 465.5 1036.5 465.5ZM1098.5 436.5 664.5 436.5 664.5 426.5 1098.5 426.5ZM788.5 397.5 664.5 397.5 664.5 387.5 788.5 387.5ZM974.5 357.5 664.5 357.5 664.5 347.5 974.5 347.5ZM726.5 318.5 664.5 318.5 664.5 308.5 726.5 308.5ZM850.5 278.5 664.5 278.5 664.5 269.5 850.5 269.5ZM912.5 239.5 664.5 239.5 664.5 229.5 912.5 229.5ZM788.5 200.5 664.5 200.5 664.5 190.5 788.5 190.5ZM788.5 160.5 664.5 160.5 664.5 151.5 788.5 151.5ZM974.5 121.5 664.5 121.5 664.5 111.5 974.5 111.5ZM726.5 82.5001 664.5 82.5001 664.5 72.5001 726.5 72.5001Z" stroke="#DBDBDB" stroke-linejoin="round" stroke-miterlimit="10" fill="#7C7C7C"/></g><g><path d="M664.5 569.5 1160.5 569.5" stroke="#000000" stroke-linejoin="round" stroke-miterlimit="10" fill="none" fill-rule="evenodd"/></g><g><path d="M664.5 569.5 664.5 573.5M726.5 569.5 726.5 573.5M788.5 569.5 788.5 573.5M850.5 569.5 850.5 573.5M912.5 569.5 912.5 573.5M974.5 569.5 974.5 573.5M1036.5 569.5 1036.5 573.5M1098.5 569.5 1098.5 573.5M1160.5 569.5 1160.5 573.5" stroke="#000000" stroke-linejoin="round" stroke-miterlimit="10" fill="none"/></g><g><path d="M0 0 0.000104987 512" stroke="#000000" stroke-linejoin="round" stroke-miterlimit="10" fill="none" fill-rule="evenodd" transform="matrix(1 0 0 -1 664.5 569.5)"/></g><g><path d="M555.5 569.5 664.5 569.5M555.5 293.5 664.5 293.5M555.5 136.5 664.5 136.5M555.5 96.5001 664.5 96.5001M555.5 57.5001 664.5 57.5001" stroke="#000000" stroke-linejoin="round" stroke-miterlimit="10" fill="none"/></g><g><path d="M514.5 569.5 555.5 569.5M514.5 293.5 555.5 293.5M514.5 136.5 555.5 136.5M514.5 96.5001 555.5 96.5001M514.5 57.5001 555.5 57.5001" stroke="#000000" stroke-linejoin="round" stroke-miterlimit="10" fill="none"/></g><g><text font-family="Calibri,Calibri_MSFontService,Arial" font-weight="400" font-size="12" transform="translate(796.367 553)">2</text></g><g><text font-family="Calibri,Calibri_MSFontService,Arial" font-weight="400" font-size="12" transform="translate(734.379 514)">1</text></g><g><text font-family="Calibri,Calibri_MSFontService,Arial" font-weight="400" font-size="12" transform="translate(1044.32 475)">6</text></g><g><text font-family="Calibri,Calibri_MSFontService,Arial" font-weight="400" font-size="12" transform="translate(1106.31 435)">7</text></g><g><text font-family="Calibri,Calibri_MSFontService,Arial" font-weight="400" font-size="12" transform="translate(796.367 396)">2</text></g><g><text font-family="Calibri,Calibri_MSFontService,Arial" font-weight="400" font-size="12" transform="translate(982.33 356)">5</text></g><g><text font-family="Calibri,Calibri_MSFontService,Arial" font-weight="400" font-size="12" transform="translate(734.379 317)">1</text></g><g><text font-family="Calibri,Calibri_MSFontService,Arial" font-weight="400" font-size="12" transform="translate(858.355 278)">3</text></g><g><text font-family="Calibri,Calibri_MSFontService,Arial" font-weight="400" font-size="12" transform="translate(920.342 238)">4</text></g><g><text font-family="Calibri,Calibri_MSFontService,Arial" font-weight="400" font-size="12" transform="translate(796.367 199)">2</text></g><g><text font-family="Calibri,Calibri_MSFontService,Arial" font-weight="400" font-size="12" transform="translate(796.367 160)">2</text></g><g><text font-family="Calibri,Calibri_MSFontService,Arial" font-weight="400" font-size="12" transform="translate(982.33 120)">5</text></g><g><text font-family="Calibri,Calibri_MSFontService,Arial" font-weight="400" font-size="12" transform="translate(734.379 81)">1</text></g><g><text font-family="Calibri,Calibri_MSFontService,Arial" font-weight="400" font-size="12" transform="translate(661.352 588)">0</text></g><g><text font-family="Calibri,Calibri_MSFontService,Arial" font-weight="400" font-size="12" transform="translate(723.339 588)">1</text></g><g><text font-family="Calibri,Calibri_MSFontService,Arial" font-weight="400" font-size="12" transform="translate(785.327 588)">2</text></g><g><text font-family="Calibri,Calibri_MSFontService,Arial" font-weight="400" font-size="12" transform="translate(847.315 588)">3</text></g><g><text font-family="Calibri,Calibri_MSFontService,Arial" font-weight="400" font-size="12" transform="translate(909.302 588)">4</text></g><g><text font-family="Calibri,Calibri_MSFontService,Arial" font-weight="400" font-size="12" transform="translate(971.29 588)">5</text></g><g><text font-family="Calibri,Calibri_MSFontService,Arial" font-weight="400" font-size="12" transform="translate(1033.28 588)">6</text></g><g><text font-family="Calibri,Calibri_MSFontService,Arial" font-weight="400" font-size="12" transform="translate(1095.27 588)">7</text></g><g><text font-family="Calibri,Calibri_MSFontService,Arial" font-weight="400" font-size="12" transform="translate(1157.25 588)">8</text></g><g><text font-family="Calibri,Calibri_MSFontService,Arial" font-weight="400" font-size="12" transform="translate(621.093 553)">Cusha</text></g><g><text font-family="Calibri,Calibri_MSFontService,Arial" font-weight="400" font-size="12" transform="translate(616.613 513)">Ipururo</text></g><g><text font-family="Calibri,Calibri_MSFontService,Arial" font-weight="400" font-size="12" transform="translate(601.333 474)">Ipururo ZA</text></g><g><text font-family="Calibri,Calibri_MSFontService,Arial" font-weight="400" font-size="12" transform="translate(581.639 435)">Río Ushpayacu</text></g><g><text font-family="Calibri,Calibri_MSFontService,Arial" font-weight="400" font-size="12" transform="translate(602.826 395)">Rumiyacu</text></g><g><text font-family="Calibri,Calibri_MSFontService,Arial" font-weight="400" font-size="12" transform="translate(585.039 356)">Sector Chural</text></g><g><text font-family="Calibri,Calibri_MSFontService,Arial" font-weight="400" font-size="12" transform="translate(626.319 316)">Topa</text></g><g><text font-family="Calibri,Calibri_MSFontService,Arial" font-weight="400" font-size="12" transform="translate(556.866 277)">Caserio Huascayacu</text></g><g><text font-family="Calibri,Calibri_MSFontService,Arial" font-weight="400" font-size="12" transform="translate(580.846 238)">Pedro Satalaya</text></g><g><text font-family="Calibri,Calibri_MSFontService,Arial" font-weight="400" font-size="12" transform="translate(607.372 198)">Pucayacu</text></g><g><text font-family="Calibri,Calibri_MSFontService,Arial" font-weight="400" font-size="12" transform="translate(577.352 159)">Río Huascayacu</text></g><g><text font-family="Calibri,Calibri_MSFontService,Arial" font-weight="400" font-size="12" transform="translate(562.612 120)">Quebrada Chuinia</text></g><g><text font-family="Calibri,Calibri_MSFontService,Arial" font-weight="400" font-size="12" transform="translate(622.953 80)">Rama</text></g><g><text font-family="Calibri,Calibri_MSFontService,Arial" font-weight="400" font-size="12" transform="matrix(6.12323e-17 -1 1 6.12323e-17 541.087 469)">Centro Poblado</text></g><g><text font-family="Calibri,Calibri_MSFontService,Arial" font-weight="400" font-size="12" transform="matrix(6.12323e-17 -1 1 6.12323e-17 541.087 232)">Kichwa</text></g><g><text font-family="Calibri,Calibri_MSFontService,Arial" font-weight="400" font-size="12" transform="matrix(6.12323e-17 -1 1 6.12323e-17 526.44 135)">Shipibo</text></g><g><text font-family="Calibri,Calibri_MSFontService,Arial" font-weight="400" font-size="12" transform="matrix(6.12323e-17 -1 1 6.12323e-17 541.087 135)">-konibo</text></g><g><text font-family="Calibri,Calibri_MSFontService,Arial" font-weight="400" font-size="12" transform="matrix(6.12323e-17 -1 1 6.12323e-17 541.087 88)">Yine</text></g><g><text font-family="Calibri,Calibri_MSFontService,Arial" font-weight="400" font-size="13" transform="translate(880.502 609)">n</text></g><g><text font-family="Calibri,Calibri_MSFontService,Arial" font-weight="400" font-size="13" transform="translate(887.509 609)">°</text></g><g><text font-family="Calibri,Calibri_MSFontService,Arial" font-weight="400" font-size="13" transform="translate(895.042 609)">personas</text></g><g><text font-family="Calibri,Calibri_MSFontService,Arial" font-weight="400" font-size="13" transform="matrix(6.12323e-17 -1 1 6.12323e-17 509.167 438)">Localidades de destino, según tipo comunidad</text></g><rect x="479.5" y="42.5001" width="699" height="573" stroke="#D9D9D9" stroke-linejoin="round" stroke-miterlimit="10" fill="none"/></g></svg>