<svg width="854" height="600" xmlns="http://www.w3.org/2000/svg" xmlns:xlink="http://www.w3.org/1999/xlink" xml:space="preserve" overflow="hidden"><defs><clipPath id="clip0"><rect x="941" y="543" width="854" height="600"/></clipPath></defs><g clip-path="url(#clip0)" transform="translate(-941 -543)"><rect x="941" y="543" width="853" height="599" fill="#F2F2F2"/><g><path d="M1133 1076 1126 1076 1126 1068 1133 1068ZM1286 1052 1126 1052 1126 1044 1286 1044ZM1196 1028 1126 1028 1126 1020 1196 1020ZM1233 1004 1126 1004 1126 996 1233 996ZM1407 980 1126 980 1126 972 1407 972ZM1160 956 1126 956 1126 948 1160 948ZM1228 932 1126 932 1126 924 1228 924ZM1513 909 1126 909 1126 900 1513 900ZM1293 885 1126 885 1126 876 1293 876ZM1173 861 1126 861 1126 852 1173 852ZM1725 837 1126 837 1126 828 1725 828ZM1354 813 1126 813 1126 804 1354 804ZM1231 789 1126 789 1126 780 1231 780ZM1178 765 1126 765 1126 757 1178 757ZM1277 741 1126 741 1126 733 1277 733ZM1267 717 1126 717 1126 709 1267 709ZM1263 693 1126 693 1126 685 1263 685ZM1231 669 1126 669 1126 661 1231 661ZM1239 645 1126 645 1126 637 1239 637ZM1236 621 1126 621 1126 613 1236 613ZM1325 598 1126 598 1126 589 1325 589ZM1305 574 1126 574 1126 565 1305 565Z" fill="#2F5597"/></g><g><path d="M1125.5 1083.5 1769.5 1083.5" stroke="#000000" stroke-linejoin="round" stroke-miterlimit="10" fill="none" fill-rule="evenodd"/></g><g><path d="M1125.5 1083.5 1125.5 1088.5M1232.5 1083.5 1232.5 1088.5M1340.5 1083.5 1340.5 1088.5M1447.5 1083.5 1447.5 1088.5M1554.5 1083.5 1554.5 1088.5M1662.5 1083.5 1662.5 1088.5M1769.5 1083.5 1769.5 1088.5" stroke="#000000" stroke-linejoin="round" stroke-miterlimit="10" fill="none"/></g><g><path d="M0 0 0.000104987 526" stroke="#000000" stroke-linejoin="round" stroke-miterlimit="10" fill="none" fill-rule="evenodd" transform="matrix(1 0 0 -1 1125.5 1083.5)"/></g><g><path d="M1121.5 1083.5 1125.5 1083.5M1121.5 1059.5 1125.5 1059.5M1121.5 1035.5 1125.5 1035.5M1121.5 1011.5 1125.5 1011.5M1121.5 988.5 1125.5 988.5M1121.5 964.5 1125.5 964.5M1121.5 940.5 1125.5 940.5M1121.5 916.5 1125.5 916.5M1121.5 892.5 1125.5 892.5M1121.5 868.5 1125.5 868.5M1121.5 844.5 1125.5 844.5M1121.5 820.5 1125.5 820.5M1121.5 796.5 1125.5 796.5M1121.5 772.5 1125.5 772.5M1121.5 748.5 1125.5 748.5M1121.5 724.5 1125.5 724.5M1121.5 700.5 1125.5 700.5M1121.5 677.5 1125.5 677.5M1121.5 653.5 1125.5 653.5M1121.5 629.5 1125.5 629.5M1121.5 605.5 1125.5 605.5M1121.5 581.5 1125.5 581.5M1121.5 557.5 1125.5 557.5" stroke="#000000" stroke-linejoin="round" stroke-miterlimit="10" fill="none"/></g><g><text font-family="Calibri,Calibri_MSFontService,Arial" font-weight="400" font-size="15" transform="translate(1141.17 1077)">7</text></g><g><text font-family="Calibri,Calibri_MSFontService,Arial" font-weight="400" font-size="15" transform="translate(1293.54 1053)">149</text></g><g><text font-family="Calibri,Calibri_MSFontService,Arial" font-weight="400" font-size="15" transform="translate(1204.48 1029)">66</text></g><g><text font-family="Calibri,Calibri_MSFontService,Arial" font-weight="400" font-size="15" transform="translate(1240.96 1005)">100</text></g><g><text font-family="Calibri,Calibri_MSFontService,Arial" font-weight="400" font-size="15" transform="translate(1414.8 981)">262</text></g><g><text font-family="Calibri,Calibri_MSFontService,Arial" font-weight="400" font-size="15" transform="translate(1168 957)">32</text></g><g><text font-family="Calibri,Calibri_MSFontService,Arial" font-weight="400" font-size="15" transform="translate(1235.6 933)">95</text></g><g><text font-family="Calibri,Calibri_MSFontService,Arial" font-weight="400" font-size="15" transform="translate(1521.03 909)">361</text></g><g><text font-family="Calibri,Calibri_MSFontService,Arial" font-weight="400" font-size="15" transform="translate(1301.05 885)">156</text></g><g><text font-family="Calibri,Calibri_MSFontService,Arial" font-weight="400" font-size="15" transform="translate(1180.87 862)">44</text></g><g><text font-family="Calibri,Calibri_MSFontService,Arial" font-weight="400" font-size="15" transform="translate(1733.49 838)">559</text></g><g><text font-family="Calibri,Calibri_MSFontService,Arial" font-weight="400" font-size="15" transform="translate(1362.22 814)">213</text></g><g><text font-family="Calibri,Calibri_MSFontService,Arial" font-weight="400" font-size="15" transform="translate(1238.82 790)">98</text></g><g><text font-family="Calibri,Calibri_MSFontService,Arial" font-weight="400" font-size="15" transform="translate(1186.24 766)">49</text></g><g><text font-family="Calibri,Calibri_MSFontService,Arial" font-weight="400" font-size="15" transform="translate(1284.96 742)">141</text></g><g><text font-family="Calibri,Calibri_MSFontService,Arial" font-weight="400" font-size="15" transform="translate(1275.3 718)">132</text></g><g><text font-family="Calibri,Calibri_MSFontService,Arial" font-weight="400" font-size="15" transform="translate(1271.01 694)">128</text></g><g><text font-family="Calibri,Calibri_MSFontService,Arial" font-weight="400" font-size="15" transform="translate(1238.82 670)">98</text></g><g><text font-family="Calibri,Calibri_MSFontService,Arial" font-weight="400" font-size="15" transform="translate(1247.4 646)">106</text></g><g><text font-family="Calibri,Calibri_MSFontService,Arial" font-weight="400" font-size="15" transform="translate(1244.18 622)">103</text></g><g><text font-family="Calibri,Calibri_MSFontService,Arial" font-weight="400" font-size="15" transform="translate(1333.25 598)">186</text></g><g><text font-family="Calibri,Calibri_MSFontService,Arial" font-weight="400" font-size="15" transform="translate(1312.86 574)">167</text></g><g><text font-family="Calibri,Calibri_MSFontService,Arial" font-weight="400" font-size="15" transform="translate(1121.94 1107)">0</text></g><g><text font-family="Calibri,Calibri_MSFontService,Arial" font-weight="400" font-size="15" transform="translate(1221.81 1107)">100</text></g><g><text font-family="Calibri,Calibri_MSFontService,Arial" font-weight="400" font-size="15" transform="translate(1329.12 1107)">200</text></g><g><text font-family="Calibri,Calibri_MSFontService,Arial" font-weight="400" font-size="15" transform="translate(1436.42 1107)">300</text></g><g><text font-family="Calibri,Calibri_MSFontService,Arial" font-weight="400" font-size="15" transform="translate(1543.73 1107)">400</text></g><g><text font-family="Calibri,Calibri_MSFontService,Arial" font-weight="400" font-size="15" transform="translate(1651.03 1107)">500</text></g><g><text font-family="Calibri,Calibri_MSFontService,Arial" font-weight="400" font-size="15" transform="translate(1758.33 1107)">600</text></g><g><text font-family="Calibri,Calibri_MSFontService,Arial" font-weight="400" font-size="15" transform="translate(965.531 1076)">02 San José de Yanayacu</text></g><g><text font-family="Calibri,Calibri_MSFontService,Arial" font-weight="400" font-size="15" transform="translate(1018.2 1052)">106 Boca Pauya</text></g><g><text font-family="Calibri,Calibri_MSFontService,Arial" font-weight="400" font-size="15" transform="translate(1036.77 1028)">11 Robashca</text></g><g><text font-family="Calibri,Calibri_MSFontService,Arial" font-weight="400" font-size="15" transform="translate(999.951 1004)">119 Nuevo Dorado</text></g><g><text font-family="Calibri,Calibri_MSFontService,Arial" font-weight="400" font-size="15" transform="translate(1022.99 980)">14 Chimbadillo</text></g><g><text font-family="Calibri,Calibri_MSFontService,Arial" font-weight="400" font-size="15" transform="translate(998.831 956)">15 Mishquiyaquillo</text></g><g><text font-family="Calibri,Calibri_MSFontService,Arial" font-weight="400" font-size="15" transform="translate(1025.58 932)">16 Chambirillo</text></g><g><text font-family="Calibri,Calibri_MSFontService,Arial" font-weight="400" font-size="15" transform="translate(1049.1 909)">17 Ipururo</text></g><g><text font-family="Calibri,Calibri_MSFontService,Arial" font-weight="400" font-size="15" transform="translate(1032.02 885)">18 Cedro Sisa</text></g><g><text font-family="Calibri,Calibri_MSFontService,Arial" font-weight="400" font-size="15" transform="translate(1045.68 861)">19 Tornillal</text></g><g><text font-family="Calibri,Calibri_MSFontService,Arial" font-weight="400" font-size="15" transform="translate(1045.81 837)">20 Mojarra</text></g><g><text font-family="Calibri,Calibri_MSFontService,Arial" font-weight="400" font-size="15" transform="translate(1030.49 813)">21 Cachatigre</text></g><g><text font-family="Calibri,Calibri_MSFontService,Arial" font-weight="400" font-size="15" transform="translate(1048.69 789)">27 Pólvora</text></g><g><text font-family="Calibri,Calibri_MSFontService,Arial" font-weight="400" font-size="15" transform="translate(1047.13 765)">53 Shapaja</text></g><g><text font-family="Calibri,Calibri_MSFontService,Arial" font-weight="400" font-size="15" transform="translate(1037.78 741)">63 Pucayacu</text></g><g><text font-family="Calibri,Calibri_MSFontService,Arial" font-weight="400" font-size="15" transform="translate(1033.92 717)">84 Santa Ana</text></g><g><text font-family="Calibri,Calibri_MSFontService,Arial" font-weight="400" font-size="15" transform="translate(1058.41 693)">89 Pisqui</text></g><g><text font-family="Calibri,Calibri_MSFontService,Arial" font-weight="400" font-size="15" transform="translate(1023.72 669)">98 Boca Noaya</text></g><g><text font-family="Calibri,Calibri_MSFontService,Arial" font-weight="400" font-size="15" transform="translate(1030.94 645)">Nuevo Loreto</text></g><g><text font-family="Calibri,Calibri_MSFontService,Arial" font-weight="400" font-size="15" transform="translate(1054.75 621)">Piquiyacu</text></g><g><text font-family="Calibri,Calibri_MSFontService,Arial" font-weight="400" font-size="15" transform="translate(1027.07 598)">Santa Catalina</text></g><g><text font-family="Calibri,Calibri_MSFontService,Arial" font-weight="400" font-size="15" transform="translate(1044.42 574)">Shanshuico</text></g><g><text font-family="Calibri,Calibri_MSFontService,Arial" font-weight="400" font-size="15" transform="translate(1409.84 1129)">N</text></g><g><text font-family="Calibri,Calibri_MSFontService,Arial" font-weight="400" font-size="15" transform="translate(1419.31 1129)">°</text></g><g><text font-family="Calibri,Calibri_MSFontService,Arial" font-weight="400" font-size="15" transform="translate(1424.28 1129)">individuos</text></g><g><text font-family="Calibri,Calibri_MSFontService,Arial" font-weight="400" font-size="15" transform="matrix(6.12323e-17 -1 1 6.12323e-17 981.537 898)">Puesto de Vigilancia y Control</text></g><rect x="941.5" y="543.5" width="853" height="599" stroke="#D9D9D9" stroke-linejoin="round" stroke-miterlimit="10" fill="none"/></g></svg>