<svg width="674" height="662" xmlns="http://www.w3.org/2000/svg" xmlns:xlink="http://www.w3.org/1999/xlink" xml:space="preserve" overflow="hidden"><defs><clipPath id="clip0"><rect x="302" y="6" width="674" height="662"/></clipPath></defs><g clip-path="url(#clip0)" transform="translate(-302 -6)"><rect x="302" y="6" width="673" height="661" fill="#D9D9D9"/><g><path d="M544 584 436 584 436 573 544 573ZM568 557 436 557 436 546 568 546ZM629 530 436 530 436 519 629 519ZM478 503 436 503 436 492 478 492ZM514 476 436 476 436 465 514 465ZM550 448 436 448 436 438 550 438ZM749 421 436 421 436 411 749 411ZM550 394 436 394 436 384 550 384ZM484 367 436 367 436 357 484 357ZM598 340 436 340 436 330 598 330ZM683 313 436 313 436 302 683 302ZM532 286 436 286 436 275 532 275ZM550 259 436 259 436 248 550 248ZM550 232 436 232 436 221 550 221ZM550 205 436 205 436 194 550 194ZM532 178 436 178 436 167 532 167ZM526 151 436 151 436 140 526 140ZM496 124 436 124 436 113 496 113ZM701 97 436 97 436 86 701 86ZM538 70 436 70 436 59 538 59ZM677 43 436 43 436 32 677 32Z" fill="#595959"/></g><g><path d="M586 584 544 584 544 573 586 573ZM617 557 568 557 568 546 617 546ZM707 530 629 530 629 519 707 519ZM514 503 478 503 478 492 514 492ZM562 476 514 476 514 465 562 465ZM604 448 550 448 550 438 604 438ZM869 421 749 421 749 411 869 411ZM611 394 550 394 550 384 611 384ZM520 367 484 367 484 357 520 357ZM671 340 598 340 598 330 671 330ZM749 313 683 313 683 302 749 302ZM574 286 532 286 532 275 574 275ZM598 259 550 259 550 248 598 248ZM604 232 550 232 550 221 604 221ZM617 205 550 205 550 194 617 194ZM580 178 532 178 532 167 580 167ZM586 151 526 151 526 140 586 140ZM544 124 496 124 496 113 544 113ZM761 97 701 97 701 86 761 86ZM592 70 538 70 538 59 592 59ZM779 43 677 43 677 32 779 32Z" fill="#2F5597"/></g><g><path d="M436.5 591.5 916.5 591.5" stroke="#000000" stroke-linejoin="round" stroke-miterlimit="10" fill="none" fill-rule="evenodd"/></g><g><path d="M0 0 0.000104987 568" stroke="#000000" stroke-linejoin="round" stroke-miterlimit="10" fill="none" fill-rule="evenodd" transform="matrix(1 0 0 -1 436.5 591.5)"/></g><g><text fill="#FFFFFF" font-family="Calibri,Calibri_MSFontService,Arial" font-weight="400" font-size="12" transform="translate(484.259 582)">18</text></g><g><text fill="#FFFFFF" font-family="Calibri,Calibri_MSFontService,Arial" font-weight="400" font-size="12" transform="translate(496.276 555)">22</text></g><g><text fill="#FFFFFF" font-family="Calibri,Calibri_MSFontService,Arial" font-weight="400" font-size="12" transform="translate(526.317 528)">32</text></g><g><text fill="#FFFFFF" font-family="Calibri,Calibri_MSFontService,Arial" font-weight="400" font-size="12" transform="translate(454.254 501)">7</text></g><g><text fill="#FFFFFF" font-family="Calibri,Calibri_MSFontService,Arial" font-weight="400" font-size="12" transform="translate(469.239 474)">13</text></g><g><text fill="#FFFFFF" font-family="Calibri,Calibri_MSFontService,Arial" font-weight="400" font-size="12" transform="translate(487.263 447)">19</text></g><g><text fill="#FFFFFF" font-family="Calibri,Calibri_MSFontService,Arial" font-weight="400" font-size="12" transform="translate(586.398 420)">52</text></g><g><text fill="#FFFFFF" font-family="Calibri,Calibri_MSFontService,Arial" font-weight="400" font-size="12" transform="translate(487.263 393)">19</text></g><g><text fill="#FFFFFF" font-family="Calibri,Calibri_MSFontService,Arial" font-weight="400" font-size="12" transform="translate(457.258 366)">8</text></g><g><text fill="#FFFFFF" font-family="Calibri,Calibri_MSFontService,Arial" font-weight="400" font-size="12" transform="translate(511.296 339)">27</text></g><g><text fill="#FFFFFF" font-family="Calibri,Calibri_MSFontService,Arial" font-weight="400" font-size="12" transform="translate(553.353 312)">41</text></g><g><text fill="#FFFFFF" font-family="Calibri,Calibri_MSFontService,Arial" font-weight="400" font-size="12" transform="translate(478.251 285)">16</text></g><g><text fill="#FFFFFF" font-family="Calibri,Calibri_MSFontService,Arial" font-weight="400" font-size="12" transform="translate(487.263 257)">19</text></g><g><text fill="#FFFFFF" font-family="Calibri,Calibri_MSFontService,Arial" font-weight="400" font-size="12" transform="translate(487.263 230)">19</text></g><g><text fill="#FFFFFF" font-family="Calibri,Calibri_MSFontService,Arial" font-weight="400" font-size="12" transform="translate(487.263 203)">19</text></g><g><text fill="#FFFFFF" font-family="Calibri,Calibri_MSFontService,Arial" font-weight="400" font-size="12" transform="translate(478.251 176)">16</text></g><g><text fill="#FFFFFF" font-family="Calibri,Calibri_MSFontService,Arial" font-weight="400" font-size="12" transform="translate(475.247 149)">15</text></g><g><text fill="#FFFFFF" font-family="Calibri,Calibri_MSFontService,Arial" font-weight="400" font-size="12" transform="translate(460.227 122)">10</text></g><g><text fill="#FFFFFF" font-family="Calibri,Calibri_MSFontService,Arial" font-weight="400" font-size="12" transform="translate(562.366 95)">44</text></g><g><text fill="#FFFFFF" font-family="Calibri,Calibri_MSFontService,Arial" font-weight="400" font-size="12" transform="translate(481.255 68)">17</text></g><g><text fill="#FFFFFF" font-family="Calibri,Calibri_MSFontService,Arial" font-weight="400" font-size="12" transform="translate(550.349 41)">40</text></g><g><text fill="#FFFFFF" font-family="Calibri,Calibri_MSFontService,Arial" font-weight="400" font-size="12" transform="translate(562.402 582)">7</text></g><g><text fill="#FFFFFF" font-family="Calibri,Calibri_MSFontService,Arial" font-weight="400" font-size="12" transform="translate(589.438 555)">8</text></g><g><text fill="#FFFFFF" font-family="Calibri,Calibri_MSFontService,Arial" font-weight="400" font-size="12" transform="translate(661.501 528)">13</text></g><g><text fill="#FFFFFF" font-family="Calibri,Calibri_MSFontService,Arial" font-weight="400" font-size="12" transform="translate(493.308 501)">6</text></g><g><text fill="#FFFFFF" font-family="Calibri,Calibri_MSFontService,Arial" font-weight="400" font-size="12" transform="translate(535.365 474)">8</text></g><g><text fill="#FFFFFF" font-family="Calibri,Calibri_MSFontService,Arial" font-weight="400" font-size="12" transform="translate(574.418 447)">9</text></g><g><text fill="#FFFFFF" font-family="Calibri,Calibri_MSFontService,Arial" font-weight="400" font-size="12" transform="translate(802.693 420)">20</text></g><g><text fill="#FFFFFF" font-family="Calibri,Calibri_MSFontService,Arial" font-weight="400" font-size="12" transform="translate(574.382 393)">10</text></g><g><text fill="#FFFFFF" font-family="Calibri,Calibri_MSFontService,Arial" font-weight="400" font-size="12" transform="translate(499.316 366)">6</text></g><g><text fill="#FFFFFF" font-family="Calibri,Calibri_MSFontService,Arial" font-weight="400" font-size="12" transform="translate(628.456 339)">12</text></g><g><text fill="#FFFFFF" font-family="Calibri,Calibri_MSFontService,Arial" font-weight="400" font-size="12" transform="translate(709.566 312)">11</text></g><g><text fill="#FFFFFF" font-family="Calibri,Calibri_MSFontService,Arial" font-weight="400" font-size="12" transform="translate(550.385 285)">7</text></g><g><text fill="#FFFFFF" font-family="Calibri,Calibri_MSFontService,Arial" font-weight="400" font-size="12" transform="translate(571.414 257)">8</text></g><g><text fill="#FFFFFF" font-family="Calibri,Calibri_MSFontService,Arial" font-weight="400" font-size="12" transform="translate(574.418 230)">9</text></g><g><text fill="#FFFFFF" font-family="Calibri,Calibri_MSFontService,Arial" font-weight="400" font-size="12" transform="translate(577.386 203)">11</text></g><g><text fill="#FFFFFF" font-family="Calibri,Calibri_MSFontService,Arial" font-weight="400" font-size="12" transform="translate(553.389 176)">8</text></g><g><text fill="#FFFFFF" font-family="Calibri,Calibri_MSFontService,Arial" font-weight="400" font-size="12" transform="translate(550.349 149)">10</text></g><g><text fill="#FFFFFF" font-family="Calibri,Calibri_MSFontService,Arial" font-weight="400" font-size="12" transform="translate(517.34 122)">8</text></g><g><text fill="#FFFFFF" font-family="Calibri,Calibri_MSFontService,Arial" font-weight="400" font-size="12" transform="translate(724.586 95)">10</text></g><g><text fill="#FFFFFF" font-family="Calibri,Calibri_MSFontService,Arial" font-weight="400" font-size="12" transform="translate(562.402 68)">9</text></g><g><text fill="#FFFFFF" font-family="Calibri,Calibri_MSFontService,Arial" font-weight="400" font-size="12" transform="translate(721.582 41)">17</text></g><g><text font-family="Calibri,Calibri_MSFontService,Arial" font-weight="400" font-size="13" transform="translate(432.886 613)">0</text></g><g><text font-family="Calibri,Calibri_MSFontService,Arial" font-weight="400" font-size="13" transform="translate(489.588 613)">10</text></g><g><text font-family="Calibri,Calibri_MSFontService,Arial" font-weight="400" font-size="13" transform="translate(549.669 613)">20</text></g><g><text font-family="Calibri,Calibri_MSFontService,Arial" font-weight="400" font-size="13" transform="translate(609.751 613)">30</text></g><g><text font-family="Calibri,Calibri_MSFontService,Arial" font-weight="400" font-size="13" transform="translate(669.833 613)">40</text></g><g><text font-family="Calibri,Calibri_MSFontService,Arial" font-weight="400" font-size="13" transform="translate(729.915 613)">50</text></g><g><text font-family="Calibri,Calibri_MSFontService,Arial" font-weight="400" font-size="13" transform="translate(789.996 613)">60</text></g><g><text font-family="Calibri,Calibri_MSFontService,Arial" font-weight="400" font-size="13" transform="translate(850.078 613)">70</text></g><g><text font-family="Calibri,Calibri_MSFontService,Arial" font-weight="400" font-size="13" transform="translate(910.16 613)">80</text></g><g><text font-family="Calibri,Calibri_MSFontService,Arial" font-weight="400" font-size="13" transform="translate(338.578 582)">106 Boca Pauya</text></g><g><text font-family="Calibri,Calibri_MSFontService,Arial" font-weight="400" font-size="13" transform="translate(355.451 555)">11 Robashca</text></g><g><text font-family="Calibri,Calibri_MSFontService,Arial" font-weight="400" font-size="13" transform="translate(321.984 528)">119 Nuevo Dorado</text></g><g><text font-family="Calibri,Calibri_MSFontService,Arial" font-weight="400" font-size="13" transform="translate(342.924 501)">14 Chimbadillo</text></g><g><text font-family="Calibri,Calibri_MSFontService,Arial" font-weight="400" font-size="13" transform="translate(320.964 474)">15 Mishquiyaquillo</text></g><g><text font-family="Calibri,Calibri_MSFontService,Arial" font-weight="400" font-size="13" transform="translate(345.284 447)">16 Chambirillo</text></g><g><text font-family="Calibri,Calibri_MSFontService,Arial" font-weight="400" font-size="13" transform="translate(366.658 420)">17 Ipururo</text></g><g><text font-family="Calibri,Calibri_MSFontService,Arial" font-weight="400" font-size="13" transform="translate(351.138 393)">18 Cedro Sisa</text></g><g><text font-family="Calibri,Calibri_MSFontService,Arial" font-weight="400" font-size="13" transform="translate(363.551 366)">19 Tornillal</text></g><g><text font-family="Calibri,Calibri_MSFontService,Arial" font-weight="400" font-size="13" transform="translate(363.671 339)">20 Mojarra</text></g><g><text font-family="Calibri,Calibri_MSFontService,Arial" font-weight="400" font-size="13" transform="translate(349.758 312)">21 Cachatigre</text></g><g><text font-family="Calibri,Calibri_MSFontService,Arial" font-weight="400" font-size="13" transform="translate(366.298 285)">27 Pólvora</text></g><g><text font-family="Calibri,Calibri_MSFontService,Arial" font-weight="400" font-size="13" transform="translate(364.871 258)">53 Shapaja</text></g><g><text font-family="Calibri,Calibri_MSFontService,Arial" font-weight="400" font-size="13" transform="translate(356.378 231)">63 Pucayacu</text></g><g><text font-family="Calibri,Calibri_MSFontService,Arial" font-weight="400" font-size="13" transform="translate(352.871 204)">84 Santa Ana</text></g><g><text font-family="Calibri,Calibri_MSFontService,Arial" font-weight="400" font-size="13" transform="translate(375.131 177)">89 Pisqui</text></g><g><text font-family="Calibri,Calibri_MSFontService,Arial" font-weight="400" font-size="13" transform="translate(343.591 150)">98 Boca Noaya</text></g><g><text font-family="Calibri,Calibri_MSFontService,Arial" font-weight="400" font-size="13" transform="translate(350.164 123)">Nuevo Loreto</text></g><g><text font-family="Calibri,Calibri_MSFontService,Arial" font-weight="400" font-size="13" transform="translate(371.811 96)">Piquiyacu</text></g><g><text font-family="Calibri,Calibri_MSFontService,Arial" font-weight="400" font-size="13" transform="translate(346.651 69)">Santa Catalina</text></g><g><text font-family="Calibri,Calibri_MSFontService,Arial" font-weight="400" font-size="13" transform="translate(362.411 42)">Shanshuico</text></g><g><rect x="578" y="643" width="8" height="8" fill="#595959"/></g><g><text font-family="Calibri,Calibri_MSFontService,Arial" font-weight="400" font-size="13" transform="translate(588.851 651)">N°registros</text></g><g><rect x="661" y="643" width="8" height="8" fill="#2F5597"/></g><g><text font-family="Calibri,Calibri_MSFontService,Arial" font-weight="400" font-size="13" transform="translate(671.941 651)">N°spp</text></g><rect x="302.5" y="6.50005" width="673" height="661" stroke="#D9D9D9" stroke-linejoin="round" stroke-miterlimit="10" fill="none"/></g></svg>