<svg width="638" height="417" xmlns="http://www.w3.org/2000/svg" xmlns:xlink="http://www.w3.org/1999/xlink" xml:space="preserve" overflow="hidden"><defs><clipPath id="clip0"><rect x="452" y="563" width="638" height="417"/></clipPath></defs><g clip-path="url(#clip0)" transform="translate(-452 -563)"><rect x="452" y="563" width="637" height="416" fill="#F2F2F2"/><g><path d="M0 0 0.000104987 333" stroke="#000000" stroke-linejoin="round" stroke-miterlimit="10" fill="none" fill-rule="evenodd" transform="matrix(1 0 0 -1 535.5 915.5)"/></g><g><path d="M535.5 915.5 1067.5 915.5" stroke="#000000" stroke-linejoin="round" stroke-miterlimit="10" fill="none" fill-rule="evenodd"/></g><g><path d="M546 903.5C546 905.433 544.433 907 542.5 907 540.567 907 539 905.433 539 903.5 539 901.567 540.567 900 542.5 900 544.433 900 546 901.567 546 903.5Z" stroke="#4472C4" stroke-width="2" stroke-linejoin="round" stroke-miterlimit="10" fill="#002060"/><path d="M672 776.5C672 778.433 670.433 780 668.5 780 666.567 780 665 778.433 665 776.5 665 774.567 666.567 773 668.5 773 670.433 773 672 774.567 672 776.5Z" stroke="#4472C4" stroke-width="2" stroke-linejoin="round" stroke-miterlimit="10" fill="#002060"/><path d="M598 796.5C598 798.433 596.433 800 594.5 800 592.567 800 591 798.433 591 796.5 591 794.567 592.567 793 594.5 793 596.433 793 598 794.567 598 796.5Z" stroke="#4472C4" stroke-width="2" stroke-linejoin="round" stroke-miterlimit="10" fill="#002060"/><path d="M628 762.5C628 764.433 626.433 766 624.5 766 622.567 766 621 764.433 621 762.5 621 760.567 622.567 759 624.5 759 626.433 759 628 760.567 628 762.5Z" stroke="#4472C4" stroke-width="2" stroke-linejoin="round" stroke-miterlimit="10" fill="#002060"/><path d="M772 669.5C772 671.433 770.433 673 768.5 673 766.567 673 765 671.433 765 669.5 765 667.567 766.567 666 768.5 666 770.433 666 772 667.567 772 669.5Z" stroke="#4472C4" stroke-width="2" stroke-linejoin="round" stroke-miterlimit="10" fill="#002060"/><path d="M568 789.5C568 791.433 566.433 793 564.5 793 562.567 793 561 791.433 561 789.5 561 787.567 562.567 786 564.5 786 566.433 786 568 787.567 568 789.5Z" stroke="#4472C4" stroke-width="2" stroke-linejoin="round" stroke-miterlimit="10" fill="#002060"/><path d="M624 769.5C624 771.433 622.433 773 620.5 773 618.567 773 617 771.433 617 769.5 617 767.567 618.567 766 620.5 766 622.433 766 624 767.567 624 769.5Z" stroke="#4472C4" stroke-width="2" stroke-linejoin="round" stroke-miterlimit="10" fill="#002060"/><path d="M860 662.5C860 664.433 858.433 666 856.5 666 854.567 666 853 664.433 853 662.5 853 660.567 854.567 659 856.5 659 858.433 659 860 660.567 860 662.5Z" stroke="#4472C4" stroke-width="2" stroke-linejoin="round" stroke-miterlimit="10" fill="#002060"/><path d="M678 762.5C678 764.433 676.433 766 674.5 766 672.567 766 671 764.433 671 762.5 671 760.567 672.567 759 674.5 759 676.433 759 678 760.567 678 762.5Z" stroke="#4472C4" stroke-width="2" stroke-linejoin="round" stroke-miterlimit="10" fill="#002060"/><path d="M578 809.5C578 811.433 576.433 813 574.5 813 572.567 813 571 811.433 571 809.5 571 807.567 572.567 806 574.5 806 576.433 806 578 807.567 578 809.5Z" stroke="#4472C4" stroke-width="2" stroke-linejoin="round" stroke-miterlimit="10" fill="#002060"/><path d="M1035 736.5C1035 738.433 1033.43 740 1031.5 740 1029.57 740 1028 738.433 1028 736.5 1028 734.567 1029.57 733 1031.5 733 1033.43 733 1035 734.567 1035 736.5Z" stroke="#4472C4" stroke-width="2" stroke-linejoin="round" stroke-miterlimit="10" fill="#002060"/><path d="M728 635.5C728 637.433 726.433 639 724.5 639 722.567 639 721 637.433 721 635.5 721 633.567 722.567 632 724.5 632 726.433 632 728 633.567 728 635.5Z" stroke="#4472C4" stroke-width="2" stroke-linejoin="round" stroke-miterlimit="10" fill="#002060"/><path d="M626 782.5C626 784.433 624.433 786 622.5 786 620.567 786 619 784.433 619 782.5 619 780.567 620.567 779 622.5 779 624.433 779 626 780.567 626 782.5Z" stroke="#4472C4" stroke-width="2" stroke-linejoin="round" stroke-miterlimit="10" fill="#002060"/><path d="M583 829.5C583 831.433 581.433 833 579.5 833 577.567 833 576 831.433 576 829.5 576 827.567 577.567 826 579.5 826 581.433 826 583 827.567 583 829.5Z" stroke="#4472C4" stroke-width="2" stroke-linejoin="round" stroke-miterlimit="10" fill="#002060"/><path d="M665 689.5C665 691.433 663.433 693 661.5 693 659.567 693 658 691.433 658 689.5 658 687.567 659.567 686 661.5 686 663.433 686 665 687.567 665 689.5Z" stroke="#4472C4" stroke-width="2" stroke-linejoin="round" stroke-miterlimit="10" fill="#002060"/><path d="M657 709.5C657 711.433 655.433 713 653.5 713 651.567 713 650 711.433 650 709.5 650 707.567 651.567 706 653.5 706 655.433 706 657 707.567 657 709.5Z" stroke="#4472C4" stroke-width="2" stroke-linejoin="round" stroke-miterlimit="10" fill="#002060"/><path d="M653 802.5C653 804.433 651.433 806 649.5 806 647.567 806 646 804.433 646 802.5 646 800.567 647.567 799 649.5 799 651.433 799 653 800.567 653 802.5Z" stroke="#4472C4" stroke-width="2" stroke-linejoin="round" stroke-miterlimit="10" fill="#002060"/><path d="M626 789.5C626 791.433 624.433 793 622.5 793 620.567 793 619 791.433 619 789.5 619 787.567 620.567 786 622.5 786 624.433 786 626 787.567 626 789.5Z" stroke="#4472C4" stroke-width="2" stroke-linejoin="round" stroke-miterlimit="10" fill="#002060"/><path d="M633 776.5C633 778.433 631.433 780 629.5 780 627.567 780 626 778.433 626 776.5 626 774.567 627.567 773 629.5 773 631.433 773 633 774.567 633 776.5Z" stroke="#4472C4" stroke-width="2" stroke-linejoin="round" stroke-miterlimit="10" fill="#002060"/><path d="M631 629.5C631 631.433 629.433 633 627.5 633 625.567 633 624 631.433 624 629.5 624 627.567 625.567 626 627.5 626 629.433 626 631 627.567 631 629.5Z" stroke="#4472C4" stroke-width="2" stroke-linejoin="round" stroke-miterlimit="10" fill="#002060"/><path d="M704 776.5C704 778.433 702.433 780 700.5 780 698.567 780 697 778.433 697 776.5 697 774.567 698.567 773 700.5 773 702.433 773 704 774.567 704 776.5Z" stroke="#4472C4" stroke-width="2" stroke-linejoin="round" stroke-miterlimit="10" fill="#002060"/><path d="M688 615.5C688 617.433 686.433 619 684.5 619 682.567 619 681 617.433 681 615.5 681 613.567 682.567 612 684.5 612 686.433 612 688 613.567 688 615.5Z" stroke="#4472C4" stroke-width="2" stroke-linejoin="round" stroke-miterlimit="10" fill="#002060"/></g><g><path d="M542 900 543 892 543 885 544 879 545 874 546 869 547 864 548 860 549 856 550 853 551 849 552 846 553 843 554 840 555 838 555 835 556 833 557 830 558 828 559 826 560 824 561 822 562 820 563 818 564 816 565 814 566 812 566 811 567 809 568 808 569 806 570 805 571 803 572 802 573 800 574 799 575 798 576 796 577 795 578 794 578 793 579 792 580 791 581 789 582 788 583 787 584 786 585 785 586 784 587 783 588 782 589 781 590 780 590 779 591 778 592 777 593 777 594 776 595 775 596 774 597 773 598 772 599 772 600 771 601 770 601 769 602 768 603 768 604 767 605 766 606 766 607 765 608 764 609 763 610 763 611 762 612 761 613 761 613 760 614 759 615 759 616 758 617 757 618 757 619 756 620 756 621 755 622 754 623 754 624 753 625 753 625 752 626 752 627 751 628 750 629 750 630 749 631 749 632 748 633 748 634 747 635 747 636 746 636 746 637 745 638 745 639 744 640 744 641 743 642 743 643 742 644 742 645 741 646 741 647 741 648 740 648 740 649 739 650 739 651 738 652 738 653 737 654 737 655 737 656 736 657 736 658 735 659 735 659 734 660 734 661 734 662 733 663 733 664 732 665 732 666 732 667 731 668 731 669 731 670 730 671 730 671 729 672 729 673 729 674 728 675 728 676 728 677 727 678 727 679 726 680 726 681 726 682 725 683 725 683 725 684 724 685 724 686 724 687 723 688 723 689 723 690 722 691 722 692 722 693 721 694 721 694 721 695 720 696 720 697 720 698 720 699 719 700 719 701 719 702 718 703 718 704 718 705 717 706 717 706 717 707 716 708 716 709 716 710 716 711 715 712 715 713 715 714 714 715 714 716 714 717 714 717 713 718 713 719 713 720 712 721 712 722 712 723 712 724 711 725 711 726 711 727 711 728 710 729 710 729 710 730 710 731 709 732 709 733 709 734 709 735 708 736 708 737 708 738 708 739 707 740 707 741 707 741 707 742 706 743 706 744 706 745 706 746 705 747 705 748 705 749 705 750 704 751 704 752 704 752 704 753 703 754 703 755 703 756 703 757 702 758 702 759 702 760 702 761 702 762 701 763 701 764 701 764 701 765 700 766 700 767 700 768 700 769 700 770 699 771 699 772 699 773 699 774 698 775 698 775 698 776 698 777 698 778 697 779 697 780 697 781 697 782 697 783 696 784 696 785 696 786 696 787 696 787 695 788 695 789 695 790 695 791 695 792 694 793 694 794 694 795 694 796 694 797 693 798 693 799 693 799 693 800 693 801 692 802 692 803 692 804 692 805 692 806 691 807 691 808 691 809 691 810 691 810 691 811 690 812 690 813 690 814 690 815 690 816 689 817 689 818 689 819 689 820 689 821 689 822 688 822 688 823 688 824 688 825 688 826 688 827 687 828 687 829 687 830 687 831 687 832 686 833 686 834 686 834 686 835 686 836 686 837 685 838 685 839 685 840 685 841 685 842 685 843 684 844 684 845 684 845 684 846 684 847 684 848 683 849 683 850 683 851 683 852 683 853 683 854 683 855 682 856 682 857 682 857 682 858 682 859 682 860 681 861 681 862 681 863 681 864 681 865 681 866 680 867 680 868 680 868 680 869 680 870 680 871 680 872 679 873 679 874 679 875 679 876 679 877 679 878 679 879 678 880 678 880 678 881 678 882 678 883 678 884 677 885 677 886 677 887 677 888 677 889 677 890 677 891 676 892 676 892 676 893 676 894 676 895 676 896 676 897 675 898 675 899 675 900 675 901 675 902 675 903 675 903 675 904 674 905 674 906 674 907 674 908 674 909 674 910 674 911 673 912 673 913 673 914 673 915 673 915 673 916 673 917 672 918 672 919 672 920 672 921 672 922 672 923 672 924 672 925 671 926 671 926 671 927 671 928 671 929 671 930 671 931 671 932 670 933 670 934 670 935 670 936 670 937 670 938 670 938 670 939 669 940 669 941 669 942 669 943 669 944 669 945 669 946 669 947 668 948 668 949 668 950 668 950 668 951 668 952 668 953 668 954 667 955 667 956 667 957 667 958 667 959 667 960 667 961 667 961 666 962 666 963 666 964 666 965 666 966 666 967 666 968 666 969 665 970 665 971 665 972 665 973 665 973 665 974 665 975 665 976 665 977 664 978 664 979 664 980 664 981 664 982 664 983 664 984 664 984 664 985 663 986 663 987 663 988 663 989 663 990 663 991 663 992 663 993 663 994 662 995 662 996 662 996 662 997 662 998 662 999 662 1000 662 1001 662 1002 661 1003 661 1004 661 1005 661 1006 661 1007 661 1008 661 1008 661 1009 661 1010 660 1011 660 1012 660 1013 660 1014 660 1015 660 1016 660 1017 660 1018 660 1019 660 1019 659 1020 659 1021 659 1022 659 1023 659 1024 659 1025 659 1026 659 1027 659 1028 658 1029 658 1030 658 1031 658 1031 658" stroke="#002060" stroke-width="2.33333" stroke-linecap="round" stroke-linejoin="round" stroke-miterlimit="10" stroke-dasharray="0 4.66667" fill="none"/></g><g><text font-family="Calibri,Calibri_MSFontService,Arial" font-weight="400" font-size="16" transform="translate(512.474 920)">0</text></g><g><text font-family="Calibri,Calibri_MSFontService,Arial" font-weight="400" font-size="16" transform="translate(512.474 887)">5</text></g><g><text font-family="Calibri,Calibri_MSFontService,Arial" font-weight="400" font-size="16" transform="translate(504.367 854)">10</text></g><g><text font-family="Calibri,Calibri_MSFontService,Arial" font-weight="400" font-size="16" transform="translate(504.367 820)">15</text></g><g><text font-family="Calibri,Calibri_MSFontService,Arial" font-weight="400" font-size="16" transform="translate(504.367 787)">20</text></g><g><text font-family="Calibri,Calibri_MSFontService,Arial" font-weight="400" font-size="16" transform="translate(504.367 753)">25</text></g><g><text font-family="Calibri,Calibri_MSFontService,Arial" font-weight="400" font-size="16" transform="translate(504.367 720)">30</text></g><g><text font-family="Calibri,Calibri_MSFontService,Arial" font-weight="400" font-size="16" transform="translate(504.367 687)">35</text></g><g><text font-family="Calibri,Calibri_MSFontService,Arial" font-weight="400" font-size="16" transform="translate(504.367 653)">40</text></g><g><text font-family="Calibri,Calibri_MSFontService,Arial" font-weight="400" font-size="16" transform="translate(504.367 620)">45</text></g><g><text font-family="Calibri,Calibri_MSFontService,Arial" font-weight="400" font-size="16" transform="translate(504.367 586)">50</text></g><g><text font-family="Calibri,Calibri_MSFontService,Arial" font-weight="400" font-size="16" transform="translate(531.372 941)">0</text></g><g><text font-family="Calibri,Calibri_MSFontService,Arial" font-weight="400" font-size="16" transform="translate(612.001 941)">100</text></g><g><text font-family="Calibri,Calibri_MSFontService,Arial" font-weight="400" font-size="16" transform="translate(700.736 941)">200</text></g><g><text font-family="Calibri,Calibri_MSFontService,Arial" font-weight="400" font-size="16" transform="translate(789.471 941)">300</text></g><g><text font-family="Calibri,Calibri_MSFontService,Arial" font-weight="400" font-size="16" transform="translate(878.206 941)">400</text></g><g><text font-family="Calibri,Calibri_MSFontService,Arial" font-weight="400" font-size="16" transform="translate(966.941 941)">500</text></g><g><text font-family="Calibri,Calibri_MSFontService,Arial" font-weight="400" font-size="16" transform="translate(1055.68 941)">600</text></g><g><text font-family="Calibri,Calibri_MSFontService,Arial" font-weight="400" font-size="16" transform="matrix(6.12323e-17 -1 1 6.12323e-17 482.294 809)">N</text></g><g><text font-family="Calibri,Calibri_MSFontService,Arial" font-weight="400" font-size="16" transform="matrix(6.12323e-17 -1 1 6.12323e-17 482.294 799)">°</text></g><g><text font-family="Calibri,Calibri_MSFontService,Arial" font-weight="400" font-size="16" transform="matrix(6.12323e-17 -1 1 6.12323e-17 482.294 793)">especies registradas</text></g><g><text font-family="Calibri,Calibri_MSFontService,Arial" font-weight="400" font-size="16" transform="translate(760.471 965)">N</text></g><g><text font-family="Calibri,Calibri_MSFontService,Arial" font-weight="400" font-size="16" transform="translate(770.798 965)">°</text></g><g><text font-family="Calibri,Calibri_MSFontService,Arial" font-weight="400" font-size="16" transform="translate(776.218 965)">individuos</text></g><rect x="452.5" y="563.5" width="637" height="416" stroke="#D9D9D9" stroke-linejoin="round" stroke-miterlimit="10" fill="none"/></g></svg>